<svg width="16" height="15" viewBox="0 0 16 15" fill="none" xmlns="http://www.w3.org/2000/svg">
<mask id="mask0" mask-type="alpha" maskUnits="userSpaceOnUse" x="-1" y="-1" width="17" height="17">
<path fill-rule="evenodd" clip-rule="evenodd" d="M0 14.9887H15.546V0H0V14.9887Z" fill="white" stroke="white" stroke-width="0.894605"/>
</mask>
<g mask="url(#mask0)">
<path fill-rule="evenodd" clip-rule="evenodd" d="M3.62667 2.99663C3.91284 2.99663 4.14479 2.79378 4.14479 2.54361V0.452352C4.14479 0.202179 3.91284 -0.000671387 3.62667 -0.000671387C3.34049 -0.000671387 3.10854 0.202179 3.10854 0.452352V2.54361C3.10854 2.79378 3.34049 2.99663 3.62667 2.99663Z" fill="white"/>
<path fill-rule="evenodd" clip-rule="evenodd" d="M4.66279 1.99746H9.84568V0.998214H4.66279V1.99746Z" fill="white"/>
<path fill-rule="evenodd" clip-rule="evenodd" d="M0.845548 11.8158V4.96656H13.6635V11.8158C13.6635 12.2703 13.2947 12.64 12.8415 12.64H1.66763C1.21429 12.64 0.845548 12.2703 0.845548 11.8158ZM12.8416 13.4888C13.7611 13.4888 14.5094 12.7386 14.5094 11.8166V2.67047C14.5094 1.74839 13.7611 0.998214 12.8416 0.998214H11.7416V1.84624H12.8416C13.2947 1.84624 13.6636 2.21604 13.6636 2.67047V4.11918H0.845586V2.67047C0.845586 2.21604 1.21433 1.84624 1.66767 1.84624H2.76754V0.998214H1.66767C0.7479 0.998214 -0.000244141 1.74839 -0.000244141 2.67047V11.8166C-0.000244141 12.7386 0.7479 13.4888 1.66767 13.4888H12.8416Z" fill="white"/>
<path fill-rule="evenodd" clip-rule="evenodd" d="M10.8818 2.99663C11.1679 2.99663 11.3999 2.79378 11.3999 2.54361V0.452352C11.3999 0.202179 11.1679 -0.000671148 10.8818 -0.000671148C10.5956 -0.000671148 10.3637 0.202179 10.3637 0.452352V2.54361C10.3637 2.79378 10.5956 2.99663 10.8818 2.99663Z" fill="white"/>
<path fill-rule="evenodd" clip-rule="evenodd" d="M5.70006 7.99289H8.29068V5.99469H5.70006V7.99289Z" fill="white"/>
<path fill-rule="evenodd" clip-rule="evenodd" d="M5.70006 11.4906H8.29068V9.49237H5.70006V11.4906Z" fill="white"/>
<path fill-rule="evenodd" clip-rule="evenodd" d="M9.84568 7.99289H12.4363V5.99469H9.84568V7.99289Z" fill="white"/>
<path fill-rule="evenodd" clip-rule="evenodd" d="M9.84568 11.4906H12.4363V9.49237H9.84568V11.4906Z" fill="white"/>
<path fill-rule="evenodd" clip-rule="evenodd" d="M2.07246 7.99289H4.66309V5.99469H2.07246V7.99289Z" fill="white"/>
<path fill-rule="evenodd" clip-rule="evenodd" d="M2.07246 11.4906H4.66309V9.49237H2.07246V11.4906Z" fill="white"/>
<path fill-rule="evenodd" clip-rule="evenodd" d="M14.8139 3.01525V12.087C14.8139 13.2696 13.8829 14.2317 12.7388 14.2317H1.8189C1.73913 14.2317 1.66055 14.2265 1.58309 14.2174C1.9978 14.6902 2.59627 14.9877 3.26086 14.9877H13.2795C14.5289 14.9877 15.5453 13.9372 15.5453 12.6459V4.73639C15.5453 4.05643 15.2632 3.44348 14.8139 3.01525Z" fill="white"/>
</g>
</svg>
