<svg width="14" height="20" viewBox="0 0 14 20" fill="none" xmlns="http://www.w3.org/2000/svg">
<path d="M12.2224 8.39371L12.7778 8.56318L12.7823 8.54856L12.786 8.53372L12.2224 8.39371ZM6.67549 18.7255L6.1722 19.0151L6.67335 19.886L7.17771 19.017L6.67549 18.7255ZM1.17027 8.51603L0.622694 8.70928L1.17027 8.51603ZM6.68103 3.01736C4.76541 3.01736 3.18802 4.53706 3.18802 6.441H4.34937C4.34937 5.20474 5.3802 4.17871 6.68103 4.17871V3.01736ZM3.18802 6.441C3.18802 8.34514 4.76501 9.86641 6.68103 9.86641V8.70506C5.3806 8.70506 4.34937 7.67824 4.34937 6.441H3.18802ZM6.68103 9.86641C8.59704 9.86641 10.174 8.34514 10.174 6.441H9.01269C9.01269 7.67824 7.98146 8.70506 6.68103 8.70506V9.86641ZM10.174 6.441C10.174 4.53706 8.59664 3.01736 6.68103 3.01736V4.17871C7.98185 4.17871 9.01269 5.20474 9.01269 6.441H10.174ZM11.667 8.22424C11.5613 8.57079 11.1815 9.36908 10.6302 10.4294C10.0906 11.4674 9.41584 12.7023 8.75469 13.8897C8.09392 15.0765 7.44846 16.2128 6.96807 17.0526C6.72792 17.4724 6.52911 17.8179 6.39039 18.0585C6.32103 18.1787 6.26669 18.2727 6.22973 18.3366C6.21124 18.3685 6.1971 18.393 6.1876 18.4094C6.18284 18.4176 6.17925 18.4237 6.17685 18.4279C6.17565 18.43 6.17475 18.4315 6.17416 18.4325C6.17386 18.433 6.17364 18.4334 6.17349 18.4337C6.17342 18.4338 6.17336 18.4339 6.17333 18.434C6.17329 18.434 6.17328 18.434 6.67549 18.7255C7.17771 19.017 7.17773 19.017 7.17778 19.0169C7.17782 19.0168 7.17788 19.0167 7.17796 19.0166C7.17812 19.0163 7.17836 19.0159 7.17867 19.0153C7.1793 19.0143 7.18023 19.0127 7.18146 19.0105C7.18392 19.0063 7.18757 19 7.19239 18.9917C7.20201 18.9751 7.21628 18.9504 7.2349 18.9183C7.27213 18.8539 7.32674 18.7595 7.3964 18.6387C7.53571 18.3972 7.73521 18.0504 7.97613 17.6292C8.4579 16.787 9.10571 15.6466 9.76936 14.4547C10.4326 13.2634 11.1135 12.0175 11.6606 10.9651C12.1961 9.93501 12.6343 9.03343 12.7778 8.56318L11.667 8.22424ZM6.67549 18.7255C7.17878 18.4359 7.17877 18.4359 7.17874 18.4358C7.1787 18.4358 7.17865 18.4357 7.17858 18.4355C7.17843 18.4353 7.17821 18.4349 7.17792 18.4344C7.17734 18.4334 7.17646 18.4319 7.17529 18.4298C7.17295 18.4258 7.16944 18.4197 7.16481 18.4116C7.15553 18.3955 7.14174 18.3715 7.12371 18.34C7.08765 18.2772 7.03465 18.1848 6.96695 18.0665C6.83156 17.83 6.63743 17.4902 6.40261 17.0771C5.9329 16.2508 5.30073 15.1322 4.65044 13.9621C3.99984 12.7914 3.33255 11.5717 2.79204 10.5426C2.24276 9.49672 1.84768 8.6907 1.71784 8.32279L0.622694 8.70928C0.786178 9.17252 1.22591 10.0583 1.76387 11.0825C2.31059 12.1235 2.98294 13.3523 3.63532 14.5262C4.288 15.7007 4.92213 16.8227 5.39299 17.651C5.62846 18.0652 5.82317 18.4061 5.95905 18.6435C6.02699 18.7622 6.08023 18.855 6.11651 18.9182C6.13465 18.9498 6.14855 18.974 6.15793 18.9903C6.16261 18.9985 6.16617 19.0047 6.16856 19.0088C6.16976 19.0109 6.17066 19.0125 6.17127 19.0135C6.17158 19.0141 6.17181 19.0145 6.17196 19.0147C6.17204 19.0149 6.1721 19.015 6.17214 19.015C6.17218 19.0151 6.1722 19.0151 6.67549 18.7255ZM1.71784 8.32279C1.53421 7.80247 1.4315 7.24901 1.4315 6.67292H0.270157C0.270157 7.38862 0.397981 8.07255 0.622694 8.70928L1.71784 8.32279ZM1.4315 6.67292C1.4315 3.87486 3.7646 1.58067 6.67549 1.58067V0.419327C3.15228 0.419327 0.270157 3.20477 0.270157 6.67292H1.4315ZM6.67549 1.58067C9.58704 1.58067 11.9201 3.8749 11.9201 6.67292H13.0814C13.0814 3.20474 10.1993 0.419327 6.67549 0.419327V1.58067ZM11.9201 6.67292C11.9201 6.91088 11.8614 7.29149 11.7918 7.64681C11.7584 7.81713 11.7249 7.96993 11.6998 8.08015C11.6872 8.13514 11.6768 8.17923 11.6696 8.20927C11.6661 8.22427 11.6633 8.23575 11.6614 8.24329C11.6605 8.24706 11.6598 8.24985 11.6594 8.2516C11.6592 8.25248 11.659 8.2531 11.6589 8.25345C11.6589 8.25362 11.6589 8.25373 11.6589 8.25378C11.6588 8.2538 11.6588 8.2538 11.6588 8.25379C11.6589 8.25378 11.6589 8.25376 11.6589 8.25376C11.6589 8.25373 11.6589 8.2537 12.2224 8.39371C12.786 8.53372 12.786 8.53368 12.786 8.53364C12.786 8.53362 12.786 8.53357 12.786 8.53353C12.786 8.53345 12.786 8.53335 12.7861 8.53324C12.7861 8.53301 12.7862 8.53271 12.7863 8.53235C12.7865 8.53162 12.7867 8.53062 12.787 8.52936C12.7877 8.52683 12.7885 8.52326 12.7896 8.51867C12.7919 8.50951 12.7951 8.49633 12.7991 8.47953C12.8071 8.44594 12.8185 8.39782 12.832 8.33839C12.8591 8.21977 12.8952 8.05495 12.9314 7.87012C13.001 7.51514 13.0814 7.03535 13.0814 6.67292H11.9201Z" fill="white"/>
</svg>
