<svg width="39" height="57" viewBox="0 0 39 57" fill="none" xmlns="http://www.w3.org/2000/svg">
<path opacity="0.5" d="M19.6309 56.2682C10.546 56.2682 3.1813 55.0865 3.1813 53.6287C3.1813 52.1709 10.546 50.9891 19.6309 50.9891C28.7157 50.9891 36.0805 52.1709 36.0805 53.6287C36.0805 55.0865 28.7157 56.2682 19.6309 56.2682Z" fill="#074491"/>
<path d="M38.4831 49.862H17.0138L12.5461 47.8799H0.952667C0.952667 47.8799 7.92508 54.1078 23.0558 54.1078C33.4736 54.0985 38.4831 49.862 38.4831 49.862Z" fill="#FAFAFA"/>
<path d="M22.0233 53.0182C28.9957 53.0182 33.5451 51.1113 35.7943 49.862H38.4831C38.4831 49.862 33.4736 54.1078 23.0558 54.1078C7.92508 54.1078 0.952667 47.8799 0.952667 47.8799H1.41272C4.19351 49.6553 10.9103 53.0182 22.0233 53.0182Z" fill="#E6E6E6"/>
<path d="M19.6208 0.358765H19.815V51.75H19.6208V0.358765Z" fill="#FAFAFA"/>
<path d="M19.7128 4.33221C19.7128 4.33221 34.3528 27.8063 37.3687 44.658C37.3687 44.658 24.1498 42.2439 19.7128 47.8799V4.33221Z" fill="#FAFAFA"/>
<path d="M35.0071 41.7555C32.7477 29.1495 23.9862 12.8332 19.7128 5.42185V4.33221C19.7128 4.33221 34.3528 27.8063 37.3687 44.658C37.3687 44.658 24.1498 42.2439 19.7128 47.8799V43.0424C25.2846 39.9801 35.0071 41.7555 35.0071 41.7555Z" fill="#E6E6E6"/>
<path d="M19.7128 18.6571L0.942535 47.8799C0.942535 47.8799 8.86571 41.4079 19.7128 41.8963V18.6571Z" fill="#E6E6E6"/>
</svg>
