<svg width="106" height="34" viewBox="0 0 106 34" fill="none" xmlns="http://www.w3.org/2000/svg">
<path opacity="0.32" d="M115.264 33.1902H0.901527C0.901527 33.1902 -1.10375 29.9624 2.00092 28.9302C4.43716 28.1273 6.25775 29.1514 6.25775 29.1514C6.25775 29.1514 8.72038 25.4976 11.7547 25.3911C15.5542 25.26 17.621 26.9231 17.621 26.9231C17.621 26.9231 12.8717 14.5446 25.22 13.5205C35.3168 12.6849 34.9386 22.4173 34.9386 22.4173C34.9386 22.4173 31.6053 -1.52864 62.0275 0.879885C82.8368 2.52653 80.7083 22.4173 80.7083 22.4173C80.7083 22.4173 85.3609 20.6478 89.9784 22.4173C94.5958 24.1869 96.2845 27.7095 96.2845 27.7095C96.2845 27.7095 112.388 27.7095 115.264 33.1902Z" fill="#ACDCFF"/>
</svg>
