<svg width="116" height="34" viewBox="0 0 116 34" fill="none" xmlns="http://www.w3.org/2000/svg">
<path opacity="0.32" d="M115.92 33.2692H1.55678C1.55678 33.2692 -0.448509 30.0414 2.65617 29.0092C5.09241 28.2064 6.91301 29.2304 6.91301 29.2304C6.91301 29.2304 9.37564 25.5767 12.41 25.4702C16.2094 25.3391 18.2763 27.0021 18.2763 27.0021C18.2763 27.0021 13.5269 14.6236 25.8753 13.5996C35.9721 12.764 35.5939 22.4964 35.5939 22.4964C35.5939 22.4964 32.2605 -1.4496 62.6828 0.958925C83.4921 2.60557 81.3637 22.4964 81.3637 22.4964C81.3637 22.4964 86.0163 20.7268 90.6337 22.4964C95.2512 24.2659 96.9398 27.7886 96.9398 27.7886C96.9398 27.7886 113.044 27.7886 115.92 33.2692Z" fill="#ACDCFF"/>
</svg>
