<svg width="132" height="51" viewBox="0 0 132 51" fill="none" xmlns="http://www.w3.org/2000/svg">
<path d="M129.767 5.53638H125.529C122.487 5.53638 120.922 7.07936 120.922 9.77415C120.922 11.4693 121.704 13.0122 123.312 13.6859L121.922 15.5114C121.487 16.1199 120.9 16.5981 120.096 17.0979C120.357 18.793 121.443 18.8799 122.095 18.8799C122.9 18.8799 123.638 18.467 124.421 17.2935L126.311 14.3379H128.463V17.4456C128.463 18.1193 128.724 18.6843 129.376 18.6843H130.593C131.223 18.6843 131.505 18.1193 131.505 17.4456V7.53574C131.484 6.12315 131.223 5.53638 129.767 5.53638ZM128.441 11.9474H126.007C124.66 11.9474 124.095 11.0129 124.095 9.99147C124.095 9.07872 124.638 8.14424 125.877 8.14424H128.441V11.9474Z" fill="white"/>
<path d="M117.293 15.4898V9.92636C117.293 7.25331 115.445 5.38434 111.925 5.38434C111.077 5.38434 107.078 5.34087 107.078 7.57929C107.078 8.07913 107.274 8.73109 107.622 9.23093C108.556 8.62243 109.751 8.20952 111.294 8.20952C112.685 8.20952 114.228 8.40511 114.228 10.2306V11.1434C113.294 10.7957 112.207 10.6435 111.229 10.6435C108.534 10.6435 106.035 11.9692 106.035 14.8161C106.035 17.0328 107.448 19.0539 110.447 19.0539C111.838 19.0539 113.576 18.6192 114.489 17.098C114.924 18.3802 115.728 18.9235 117.053 18.9235C118.075 18.9235 118.749 18.2933 118.749 17.337C118.749 17.1414 118.705 16.9676 118.683 16.772C117.619 16.772 117.293 16.5764 117.293 15.4898ZM114.228 14.2511C114.228 15.4029 112.62 16.446 111.273 16.446C109.882 16.446 109.143 15.9462 109.143 14.7509C109.143 13.3383 110.36 12.9906 111.664 12.9906C112.468 12.9906 113.511 13.121 114.228 13.2514V14.2511Z" fill="white"/>
<path d="M102.754 5.53665H101.515C100.885 5.53665 100.602 6.10169 100.602 6.77538V10.5568H95.6475V7.51428C95.6475 5.81917 94.7999 5.36279 93.9958 5.36279C93.1483 5.36279 92.0834 5.79744 91.9747 6.71019C92.5398 7.1231 92.5832 7.7316 92.5832 9.57884V17.4242C92.5832 18.0978 92.844 18.6629 93.496 18.6629H94.7347C95.365 18.6629 95.6475 18.0978 95.6475 17.4242V13.2516H100.602V17.4242C100.602 18.0978 100.863 18.6629 101.515 18.6629H102.754C103.384 18.6629 103.667 18.0978 103.667 17.4242V6.77538C103.667 6.12342 103.406 5.53665 102.754 5.53665Z" fill="white"/>
<path d="M41.3169 18.7932C45.0983 18.7932 45.6416 13.2297 45.772 8.25308H49.3361V17.4458C49.3361 18.1195 49.5968 18.6845 50.2488 18.6845H51.531C52.1612 18.6845 52.4438 18.1195 52.4438 17.4458V7.03608C52.4438 6.18852 52.2482 5.55829 51.205 5.55829H44.2507C43.4032 5.55829 43.0337 5.906 42.9685 7.01434C42.8381 9.64394 43.0772 16.0549 40.2955 16.0549C40.1868 16.0549 40.0999 16.0549 39.9912 16.0115C39.9478 16.3157 39.926 16.5765 39.926 16.8156C39.926 18.4455 40.8388 18.7932 41.3169 18.7932Z" fill="white"/>
<path d="M87.8019 20.0318C87.8019 21.5096 88.2366 22.0529 89.2797 22.0529C89.8447 22.0529 90.3011 21.8573 90.6923 21.5096C90.5619 21.0749 90.5184 20.4664 90.5184 19.7492V17.3587C90.5184 16.685 90.2577 16.12 89.6057 16.12H87.8237V6.77514C87.8237 6.10144 87.5629 5.5364 86.9109 5.5364H85.6939C85.0637 5.5364 84.7811 6.10144 84.7811 6.77514V16.12H80.9998V6.77514C80.9998 6.10144 80.739 5.5364 80.087 5.5364H78.8917C78.2615 5.5364 77.979 6.10144 77.979 6.77514V16.12H74.1976V7.53576C74.1976 5.84065 73.3283 5.38428 72.5025 5.38428C71.6549 5.38428 70.8074 5.73199 70.5466 6.73167C71.1116 7.14458 71.1551 7.75308 71.1551 9.60032V17.4456C71.1551 18.1193 71.4159 18.6844 72.0678 18.6844H87.8019V20.0318Z" fill="white"/>
<path d="M26.0826 9.57859V17.337C26.0826 18.2063 26.1478 18.6844 27.191 18.6844H27.7343C28.1037 18.6844 28.3645 18.4236 28.6687 18.0541L34.5582 10.5348V17.4456C34.5582 18.1193 34.819 18.6844 35.4709 18.6844H36.5575C37.1878 18.6844 37.4703 18.1193 37.4703 17.4456V6.8838C37.4703 6.01451 37.4051 5.5364 36.3619 5.5364H35.8186C35.4492 5.5364 35.1884 5.77546 34.8842 6.16664L28.9947 13.7512V7.53576C28.9947 5.84065 28.1472 5.38428 27.3431 5.38428C26.4955 5.38428 25.5828 5.79719 25.4958 6.73167C26.0392 7.12285 26.0826 7.73135 26.0826 9.57859Z" fill="white"/>
<path d="M57.7677 18.6844C58.1372 18.6844 58.3979 18.4236 58.7022 18.0541L64.5916 10.5348V17.4456C64.5916 18.1193 64.8524 18.6844 65.5044 18.6844H66.591C67.2212 18.6844 67.5037 18.1193 67.5037 17.4456V6.8838C67.5037 6.01451 67.4385 5.5364 66.3954 5.5364H65.8521C65.4826 5.5364 65.2219 5.77546 64.9176 6.16664L59.0282 13.7512V7.53576C59.0282 5.84065 58.1806 5.38428 57.3765 5.38428C56.529 5.38428 55.6162 5.79719 55.5293 6.73167C56.0943 7.14459 56.1378 7.75309 56.1378 9.60032V17.3587C56.1378 18.228 56.203 18.7061 57.2461 18.7061H57.7677V18.6844Z" fill="white"/>
<path d="M22.4314 18.6844C23.4529 18.6844 24.1266 17.663 24.1266 16.8372C24.1266 16.5981 24.0831 16.4025 24.0614 16.2287C23.1486 16.2287 22.2141 15.2507 21.6056 14.338L18.0633 9.12226L22.714 2.38528C23.0182 1.95064 23.1921 1.60292 23.1486 1.34214C23.1486 0.972689 22.8878 0.7771 22.4314 0.7771H21.5187C20.6711 0.7771 20.2365 0.820563 19.7584 1.51599L15.0642 8.36163H14.1298V2.0593C14.1298 1.3856 13.869 0.7771 13.217 0.7771H11.9783C11.348 0.7771 11.0655 1.3856 11.0655 2.0593V8.36163H10.131L6.2627 2.32008C5.28476 0.907492 4.65453 0.7771 3.8287 0.7771C2.89422 0.7771 1.80761 1.03789 1.56856 2.62433C2.41611 2.81992 3.17674 3.64575 4.00256 4.62369L7.19719 9.14399L1.37296 17.4022C1.17738 17.663 1.11218 17.9021 1.11218 18.1194C1.11218 18.4888 1.37297 18.7279 1.89454 18.7279H3.43752C4.04602 18.7279 4.41547 18.7713 4.91531 18.0542L9.54426 11.2085C9.80505 10.8391 9.97891 10.6 10.457 10.6H11.0873V17.4457C11.0873 18.1194 11.348 18.7279 12 18.7279H13.2387C13.869 18.7279 14.1515 18.1194 14.1515 17.4457V10.5566H14.5644C15.2816 10.5566 15.4989 10.6652 15.8466 11.1868L18.8022 15.9462C20.4104 18.5975 21.3231 18.6844 22.4314 18.6844Z" fill="white"/>
<path d="M93.9301 31.9194H89.6923C86.6498 31.9194 84.9765 33.4624 84.9765 36.1571C84.9765 37.8523 85.7588 39.3952 87.367 40.0689L85.9761 41.8944C85.5415 42.5029 84.9547 42.9811 84.1506 43.4809C84.4114 45.176 85.498 45.2629 86.15 45.2629C86.9541 45.2629 87.693 44.85 88.4753 43.6765L90.366 40.6992H92.5175V43.8069C92.5175 44.4806 92.7783 45.0456 93.4303 45.0456H94.6473C95.2775 45.0456 95.56 44.4806 95.56 43.8069V33.897C95.56 32.4844 95.3644 31.9194 93.9301 31.9194ZM92.5175 38.3304H90.0835C88.7361 38.3304 88.1711 37.3959 88.1711 36.3745C88.1711 35.4617 88.7144 34.5272 89.9531 34.5272H92.5175V38.3304Z" fill="white"/>
<path d="M82.9774 36.5484C82.9774 33.8536 80.9346 31.5934 77.5009 31.5934C73.3935 31.5934 70.8291 34.3969 70.8291 38.3304C70.8291 43.7852 73.9368 45.4803 77.8486 45.4803C79.6958 45.4803 82.1298 44.937 82.1298 43.394C82.1298 42.9159 81.9342 42.4161 81.63 41.9814C80.7172 42.4813 79.7176 42.6986 78.6744 42.6986C76.0883 42.6986 74.2845 41.851 74.0672 39.9386H80.8476C82.4123 39.8517 82.9774 38.0262 82.9774 36.5484ZM77.3488 37.4394H74.002C74.1759 35.3096 75.5884 34.1796 77.3053 34.1796C78.6092 34.1796 79.9783 34.8098 79.9783 36.4615C79.9783 37.3525 79.6524 37.4394 77.3488 37.4394Z" fill="white"/>
<path d="M53.6168 36.5484C53.6168 33.8536 51.574 31.5934 48.1403 31.5934C44.0329 31.5934 41.4685 34.3969 41.4685 38.3304C41.4685 43.7852 44.5762 45.4803 48.488 45.4803C50.3352 45.4803 52.7692 44.937 52.7692 43.394C52.7692 42.9159 52.5737 42.4161 52.2694 41.9814C51.3567 42.4813 50.357 42.6986 49.2921 42.6986C46.706 42.6986 44.9022 41.851 44.6849 39.9386H51.4653C53.0518 39.8517 53.6168 38.0262 53.6168 36.5484ZM47.9882 37.4394H44.6414C44.8153 35.3096 46.2279 34.1796 47.9447 34.1796C49.2486 34.1796 50.6178 34.8098 50.6178 36.4615C50.6178 37.3525 50.2918 37.4394 47.9882 37.4394Z" fill="white"/>
<path d="M63.4399 31.5934C61.9839 31.5934 60.4626 32.2237 59.3108 33.7232C59.05 32.3323 58.7675 31.9412 57.5505 31.9412H55.5294C55.4642 32.2454 55.3338 32.5062 55.3338 32.7453C55.3338 33.7667 55.8337 34.2665 56.377 34.3317V49.0879C56.377 50.5656 57.0072 50.9351 58.0721 50.9351C58.6371 50.9351 59.0935 50.7395 59.4847 50.3918C59.3543 49.9571 59.3108 49.3486 59.3108 48.6315V44.4154C60.3974 45.1543 61.3754 45.4586 62.4837 45.4586C66.8736 45.4586 68.8512 41.7424 68.8512 38.287C68.8512 34.8533 67.2865 31.5934 63.4399 31.5934ZM61.7665 42.6334C61.0276 42.5899 59.8758 42.2639 59.3108 41.5468V37.0048C59.7237 35.4835 61.0711 34.5056 62.6793 34.5056C64.9612 34.5056 65.7435 36.3311 65.7435 38.1566C65.7653 40.5254 64.6352 42.6334 61.7665 42.6334Z" fill="white"/>
<path d="M21.8446 31.5934C17.759 31.7021 15.325 34.636 15.325 38.7651C15.325 42.3074 17.5199 45.4151 21.7577 45.4803C25.8433 45.3716 28.1904 42.4378 28.1904 38.3087C28.2121 34.7446 26.1041 31.6586 21.8446 31.5934ZM21.7577 42.6117C19.8452 42.6117 18.4109 40.8948 18.4109 38.3739C18.4109 35.8747 19.8235 34.4621 21.7577 34.4621C23.6701 34.4621 25.1044 36.1789 25.1044 38.6999C25.1044 41.1991 23.6918 42.6117 21.7577 42.6117Z" fill="white"/>
<path d="M39.3389 31.9194H30.4504C29.7115 31.9194 29.2117 32.1584 29.2117 32.8973V33.9187C29.2117 34.6576 29.6246 34.8967 30.3635 34.8967H33.2539V43.8286C33.2539 44.5023 33.5146 45.0673 34.1666 45.0673H35.4488C36.079 45.0673 36.3616 44.5023 36.3616 43.8286V34.8967H39.2519C39.9908 34.8967 40.4037 34.6576 40.4037 33.9187V32.8973C40.4037 32.1584 40.0995 31.9194 39.3389 31.9194Z" fill="white"/>
<path d="M11.5434 31.9194H4.58913C3.74157 31.9194 3.28519 32.2671 3.22 33.3754C3.0896 36.005 3.32866 42.416 0.54694 42.416C0.438279 42.416 0.351352 42.416 0.242691 42.3726C0.199226 42.6768 0.17749 42.9376 0.17749 43.1766C0.17749 44.8283 1.09025 45.176 1.56835 45.176C5.34975 45.176 5.89306 39.6126 6.02345 34.6142H9.58753V43.8286C9.58753 44.5023 9.84831 45.0673 10.5003 45.0673H11.7825C12.4127 45.0673 12.6952 44.5023 12.6952 43.8286V33.4189C12.6952 32.5713 12.5866 31.9194 11.5434 31.9194Z" fill="white"/>
</svg>
