<svg width="93" height="93" viewBox="0 0 93 93" fill="none" xmlns="http://www.w3.org/2000/svg">
<path opacity="0.5" d="M57.0804 83.5841C71.8193 83.5841 83.7675 81.4436 83.7675 78.8031C83.7675 76.1625 71.8193 74.022 57.0804 74.022C42.3415 74.022 30.3933 76.1625 30.3933 78.8031C30.3933 81.4436 42.3415 83.5841 57.0804 83.5841Z" fill="#713131"/>
<path d="M69.75 69.75C82.5906 56.9094 82.5906 36.0906 69.75 23.25C56.9094 10.4094 36.0906 10.4094 23.25 23.25C10.4094 36.0906 10.4094 56.9094 23.25 69.75C36.0906 82.5906 56.9094 82.5906 69.75 69.75Z" fill="#EC2024"/>
<path d="M46.4968 67.0677C54.5377 67.0677 60.7965 66.6983 64.4041 66.1984C66.4469 65.9159 68.0116 64.2643 68.3593 62.2432C68.8374 59.5267 69.3807 53.898 69.3807 49.6385C69.3807 45.379 69.033 40.7283 68.5332 38.077C68.2289 36.5123 67.3162 35.078 66.1209 34.0348C65.2951 33.3177 64.2302 32.5136 62.9915 31.666C59.623 29.4493 55.7547 27.3848 55.7547 27.3848C51.7777 25.2985 48.1484 23.6251 46.9314 23.0818C46.6489 22.9514 46.3446 22.9514 46.0621 23.0818C44.8451 23.6251 41.2159 25.2985 37.2389 27.3848L37.4562 24.0163C37.4562 23.8859 37.3475 23.7772 37.2171 23.799C36.6956 23.8859 35.4134 24.0815 33.8704 24.4292C32.5012 24.7334 31.5885 25.016 31.1104 25.1681C30.8713 25.255 30.6975 25.4506 30.6757 25.6897C30.5454 26.6024 30.2411 29.0364 30.0238 31.666C28.785 32.5136 27.7202 33.3177 26.8943 34.0348C25.6773 35.078 24.7863 36.5123 24.4821 38.077C23.9605 40.7283 23.6345 45.379 23.6345 49.6385C23.6345 53.898 24.1778 59.5267 24.6559 62.2432C25.0254 64.2643 26.5901 65.9377 28.6112 66.1984C32.197 66.6983 38.4341 67.0677 46.4968 67.0677Z" fill="white"/>
<mask id="mask0" mask-type="alpha" maskUnits="userSpaceOnUse" x="0" y="0" width="93" height="93">
<path d="M69.75 69.75C82.5906 56.9094 82.5906 36.0906 69.75 23.25C56.9094 10.4094 36.0906 10.4094 23.25 23.25C10.4094 36.0906 10.4094 56.9094 23.25 69.75C36.0906 82.5906 56.9094 82.5906 69.75 69.75Z" fill="#EC2024"/>
</mask>
<g mask="url(#mask0)">
<path d="M46.714 45.792C46.714 45.792 41.9981 39.0332 40.0857 36.3167C38.7818 34.4478 37.3475 33.7089 36.1522 33.7089C33.8486 33.7089 31.9796 35.317 31.9796 38.4247V56.4842C31.9796 59.2224 33.8486 61.0697 36.1522 61.0697C38.4558 61.0697 40.3248 59.3963 40.3248 56.4842V49.117C42.824 52.3116 44.4104 54.2458 46.714 54.2458C49.0394 54.2458 50.6258 52.3116 53.1033 49.117V56.4842C53.1033 59.3963 54.9723 61.0697 57.2759 61.0697C59.5795 61.0697 61.4485 59.2224 61.4485 56.4842V38.4247C61.4485 35.317 59.5795 33.7089 57.2759 33.7089C56.0806 33.7089 54.6463 34.4695 53.3423 36.3167C51.4299 39.0332 46.714 45.792 46.714 45.792Z" fill="black"/>
<path d="M60.9058 15.8883C60.4059 17.4747 59.7974 19.4958 56.5376 18.7787C52.7562 17.9529 49.1052 17.3878 46.4756 17.3878C43.8243 17.3878 40.195 17.9529 36.4136 18.7787C33.1538 19.4741 32.5453 17.453 32.0454 15.8883C37.761 13.8237 46.6712 8.67321 60.9058 15.8883Z" fill="white"/>
<path d="M60.9058 77.1078C60.4059 75.5214 59.7974 73.5003 56.5376 74.2174C52.7562 75.0433 49.1052 75.6083 46.4756 75.6083C43.8243 75.6083 40.195 75.0433 36.4136 74.2174C33.1538 73.522 32.5453 75.5431 32.0454 77.1078C37.761 79.1724 46.6712 84.3446 60.9058 77.1078Z" fill="white"/>
<path d="M77.0962 60.9173C75.5098 60.4174 73.4887 59.8089 74.2058 56.5491C75.0317 52.7677 75.5967 49.1167 75.5967 46.4871C75.5967 43.8358 75.0317 40.2065 74.2058 36.4251C73.5104 33.1653 75.5315 32.5568 77.0962 32.0569C79.1608 37.7725 84.333 46.6827 77.0962 60.9173Z" fill="white"/>
<path d="M15.8765 60.9173C17.4629 60.4174 19.484 59.8089 18.7668 56.5491C17.941 52.7677 17.376 49.1167 17.376 46.4871C17.376 43.8358 17.941 40.2065 18.7668 36.4251C19.4623 33.1653 17.4412 32.5568 15.8765 32.0569C13.8119 37.7725 8.66137 46.6827 15.8765 60.9173Z" fill="white"/>
<path opacity="0.4" d="M55.5373 84.2143C38.521 90.4949 16.7888 78.7595 16.7888 60.6132C25.9815 72.1095 72.5753 68.6106 72.5753 42.4016C72.5753 41.7931 72.6188 41.0759 72.7057 40.4674C72.5753 38.3594 72.032 39.8807 66.7294 38.8593C62.2743 37.99 62.5133 26.9283 72.0537 24.4943C73.9444 24.0162 74.3791 29.6448 74.9441 29.384C82.2027 39.6634 92.9601 70.4144 55.5373 84.2143Z" fill="#872E2D"/>
<path opacity="0.55" d="M30.9437 31.1533C34.9392 28.119 37.1543 24.311 35.8912 22.6478C34.6281 20.9846 30.3652 22.096 26.3697 25.1303C22.3741 28.1646 20.1591 31.9726 21.4221 33.6358C22.6852 35.299 26.9481 34.1876 30.9437 31.1533Z" fill="white"/>
</g>
<path d="M77.5735 30.688H70.8365C71.5102 29.797 72.6186 29.0799 74.0312 28.0802C76.3348 26.4285 79.3556 24.4292 79.3556 20.2349C79.3556 16.0188 75.9219 13.7152 72.4664 13.7152C69.4022 13.7152 67.3594 15.3669 67.0769 15.5842C66.0337 16.3665 65.7512 17.953 66.5336 18.9744C66.9682 19.5612 67.6419 19.8437 68.3156 19.8437C68.8372 19.8437 69.3805 19.6698 69.8369 19.3221C70.1411 19.0831 71.1408 18.4311 72.4447 18.4311C74.205 18.4311 74.6179 19.409 74.6179 20.2349C74.6179 21.7344 73.5313 22.6037 71.4016 24.1467C69.0328 25.8852 65.9033 27.7977 65.4035 31.9485C65.2948 32.8178 65.5773 33.7088 66.1641 34.3608C66.7509 35.0345 67.5984 35.4039 68.4895 35.4039H77.5735C78.8774 35.4039 79.9423 34.339 79.9423 33.0351C79.9206 31.7529 78.8774 30.688 77.5735 30.688Z" fill="#12100B"/>
<path d="M72.4449 13.715C75.9003 13.715 79.334 16.0186 79.334 20.2347C79.334 24.429 76.3349 26.4284 74.0096 28.08C72.597 29.0797 71.4887 29.7968 70.815 30.6879H77.5519C78.8559 30.6879 79.9207 31.7527 79.9207 33.0567C79.9207 34.3606 78.8559 35.4255 77.5519 35.4255H68.4896C67.5986 35.4255 66.751 35.0343 66.1643 34.3823C65.5775 33.7304 65.295 32.8393 65.4037 31.9701C65.8818 27.8192 69.0112 25.9068 71.4017 24.1682C73.5098 22.6252 74.6181 21.7559 74.6181 20.2564C74.6181 19.4306 74.2052 18.4526 72.4449 18.4526C71.1409 18.4526 70.1413 19.1046 69.837 19.3437C69.3806 19.6914 68.8373 19.8652 68.3158 19.8652C67.6421 19.8652 66.9684 19.5827 66.5337 18.996C65.7514 17.9528 66.0339 16.3881 67.077 15.6057C67.3378 15.3667 69.3806 13.715 72.4449 13.715ZM72.4449 12.585C69.5328 12.585 67.403 13.8889 66.4033 14.6495L66.3816 14.6713C64.8169 15.8665 64.4692 18.1484 65.621 19.6479C66.2512 20.4737 67.2292 20.9736 68.3158 20.9736C69.0981 20.9736 69.8805 20.7128 70.5107 20.213C70.5976 20.1478 71.4017 19.561 72.4449 19.561C73.488 19.561 73.488 19.9304 73.488 20.2347C73.488 21.1257 72.7709 21.7342 70.728 23.2337C70.5324 23.3859 70.3369 23.5162 70.1413 23.6684C67.7507 25.3852 64.7952 27.515 64.2953 31.8179C64.1649 33.0132 64.5344 34.2085 65.3385 35.0995C66.1425 36.0122 67.2944 36.5121 68.5114 36.5121H77.5737C79.4861 36.5121 81.0508 34.9474 81.0508 33.0349C81.0508 31.1225 79.4861 29.5578 77.5737 29.5578H73.8792C73.9444 29.5143 74.0313 29.4491 74.0965 29.4057C74.2921 29.2753 74.466 29.1449 74.6833 28.9928L74.8789 28.8624C77.2477 27.189 80.4858 24.8854 80.4858 20.2347C80.4858 17.9528 79.573 15.9317 77.9431 14.5409C76.4436 13.2804 74.5094 12.585 72.4449 12.585Z" fill="white"/>
<path d="M16.7887 60.613C17.1147 60.4826 17.4624 60.3305 17.745 60.1349C15.7456 55.9406 14.6807 51.2899 14.6807 46.5088C14.6807 41.7277 15.7456 37.0771 17.745 32.861C17.4407 32.6654 17.1147 32.5133 16.7887 32.3829C16.8757 32.1873 16.9626 32.0135 17.0495 31.8396C14.8546 36.2512 13.5941 41.2279 13.5941 46.5088C13.5941 51.9636 14.9198 57.1141 17.2886 61.6561C17.1147 61.3084 16.9409 60.9607 16.7887 60.613Z" fill="#C6C5C4"/>
<path d="M17.8103 30.4273C17.8972 30.2534 18.0059 30.1013 18.0928 29.9492C17.9842 30.1013 17.8972 30.2534 17.8103 30.4273Z" fill="#C6C5C4"/>
<path d="M18.1578 29.797C18.2665 29.6231 18.3534 29.471 18.4621 29.2971C18.3534 29.471 18.2665 29.6231 18.1578 29.797Z" fill="#C6C5C4"/>
<path d="M17.4409 31.0575C17.5278 30.8836 17.6148 30.7315 17.7017 30.5576C17.6365 30.7315 17.5278 30.8836 17.4409 31.0575Z" fill="#C6C5C4"/>
<path d="M17.1146 31.7094C17.2016 31.5355 17.2885 31.3617 17.3754 31.2095C17.2885 31.3617 17.2016 31.5355 17.1146 31.7094Z" fill="#C6C5C4"/>
<path d="M22.5908 69.0885C22.8516 69.3493 23.0907 69.6101 23.3514 69.8709C23.0907 69.6101 22.8299 69.3493 22.5908 69.0885Z" fill="#C6C5C4"/>
<path d="M32.8272 17.7574C37.0433 15.758 41.6722 14.6932 46.475 14.6932C51.2778 14.6932 55.9068 15.758 60.1228 17.7574C60.3184 17.4532 60.4706 17.1272 60.601 16.8012C56.3197 14.7584 51.5386 13.6283 46.475 13.6283C41.4114 13.6283 36.6304 14.7801 32.3491 16.8229C32.4795 17.1272 32.6316 17.4749 32.8272 17.7574Z" fill="#C6C5C4"/>
<path d="M17.8315 62.6123C17.6577 62.3081 17.4838 61.9821 17.3099 61.6779C17.4838 62.0038 17.6577 62.3081 17.8315 62.6123Z" fill="#C6C5C4"/>
<path d="M45.1061 79.3462C44.8019 79.3245 44.4759 79.3245 44.1716 79.3027C44.4759 79.3245 44.8019 79.3462 45.1061 79.3462Z" fill="#C6C5C4"/>
<path d="M73.3142 65.5463C72.8578 66.1983 72.3797 66.8285 71.8799 67.437C72.358 66.8068 72.8361 66.1766 73.3142 65.5463Z" fill="#C6C5C4"/>
<path d="M69.1848 70.3058C69.576 69.9363 69.9454 69.5669 70.2932 69.1974C69.9237 69.5669 69.5543 69.9363 69.1848 70.3058Z" fill="#C6C5C4"/>
<path d="M63.5347 74.6302C63.0783 74.9127 62.6219 75.1735 62.1655 75.4125C62.6219 75.1518 63.0783 74.891 63.5347 74.6302Z" fill="#C6C5C4"/>
<path d="M66.7945 72.3701C66.3816 72.6961 65.9687 73.0221 65.5341 73.3263C65.947 73.0003 66.3816 72.6961 66.7945 72.3701Z" fill="#C6C5C4"/>
<path d="M60.7526 76.1516C60.0354 76.4993 59.2965 76.8253 58.5576 77.1078C59.2965 76.8036 60.0354 76.4776 60.7526 76.1516Z" fill="#C6C5C4"/>
<path d="M69.185 70.3056C68.7938 70.6751 68.4244 71.0228 68.0115 71.3705C68.4027 71.0228 68.7938 70.6751 69.185 70.3056Z" fill="#C6C5C4"/>
<path d="M68.0113 71.3706C67.6201 71.7183 67.2072 72.0443 66.7943 72.3703C67.2072 72.0443 67.6201 71.7183 68.0113 71.3706Z" fill="#C6C5C4"/>
<path d="M71.858 67.4153C71.532 67.8283 71.1843 68.2194 70.8148 68.6106C71.1843 68.2194 71.532 67.8283 71.858 67.4153Z" fill="#C6C5C4"/>
<path d="M19.0054 64.5683C18.5925 63.9598 18.2231 63.3296 17.8536 62.6776C18.2231 63.3296 18.6143 63.9598 19.0054 64.5683Z" fill="#C6C5C4"/>
<path d="M25.851 72.1094C25.5902 71.8921 25.3294 71.6748 25.0686 71.4575C25.3294 71.6748 25.5902 71.8921 25.851 72.1094Z" fill="#C6C5C4"/>
<path d="M30.5886 75.2824C30.3279 75.1302 30.0453 74.9781 29.7845 74.826C30.0453 74.9781 30.3061 75.1302 30.5886 75.2824Z" fill="#C6C5C4"/>
<path d="M29.6106 74.7173C29.3064 74.5434 29.0021 74.3478 28.6979 74.1522C29.0021 74.3478 29.3064 74.5434 29.6106 74.7173Z" fill="#C6C5C4"/>
<path d="M25.0468 71.4359C24.7642 71.1969 24.5035 70.9578 24.2427 70.7188C24.5035 70.9578 24.7642 71.1969 25.0468 71.4359Z" fill="#C6C5C4"/>
<path d="M28.676 74.1523C28.3935 73.9567 28.111 73.7828 27.8285 73.5872C28.111 73.7828 28.3935 73.9784 28.676 74.1523Z" fill="#C6C5C4"/>
<path d="M27.6764 73.4785C27.0897 73.0656 26.5246 72.6527 25.9813 72.2181C26.5246 72.6527 27.0897 73.0656 27.6764 73.4785Z" fill="#C6C5C4"/>
<path d="M21.7869 68.1977C21.3087 67.6544 20.8524 67.0893 20.4177 66.5243C20.8524 67.0893 21.3087 67.6544 21.7869 68.1977Z" fill="#C6C5C4"/>
<path d="M20.3309 66.4373C19.8963 65.8505 19.4616 65.2638 19.0704 64.6553C19.4616 65.2638 19.8963 65.8505 20.3309 66.4373Z" fill="#C6C5C4"/>
<path d="M23.4169 69.9361C23.6559 70.1752 23.895 70.3925 24.134 70.6315C23.895 70.3925 23.6559 70.1752 23.4169 69.9361Z" fill="#C6C5C4"/>
<path d="M46.4963 79.3899C46.1268 79.3899 45.7791 79.3899 45.4097 79.3682C45.7574 79.3682 46.1268 79.3899 46.4963 79.3899Z" fill="#C6C5C4"/>
<path d="M22.5476 69.0453C22.3085 68.7845 22.0695 68.5455 21.8522 68.2847C22.0912 68.5455 22.3085 68.8062 22.5476 69.0453Z" fill="#C6C5C4"/>
<path d="M38.0862 78.3031C37.782 78.2162 37.4777 78.1292 37.1952 78.0423C37.4994 78.1292 37.782 78.2162 38.0862 78.3031Z" fill="#C6C5C4"/>
<path d="M40.3461 78.8031C40.0636 78.7597 39.7811 78.6945 39.4985 78.6293C39.7593 78.6945 40.0636 78.7597 40.3461 78.8031Z" fill="#C6C5C4"/>
<path d="M39.238 78.5857C38.8902 78.4988 38.5643 78.4336 38.2166 78.3467C38.5643 78.4119 38.8902 78.4988 39.238 78.5857Z" fill="#C6C5C4"/>
<path d="M44.019 79.2813C43.6713 79.2595 43.3018 79.2161 42.9541 79.1943C43.3018 79.2378 43.6495 79.2595 44.019 79.2813Z" fill="#C6C5C4"/>
<path d="M31.6316 75.8474C31.3274 75.6952 31.0014 75.5214 30.6971 75.3475C31.0231 75.5214 31.3274 75.6952 31.6316 75.8474Z" fill="#C6C5C4"/>
<path d="M41.585 79.0204C41.2373 78.977 40.8896 78.9118 40.5419 78.8466C40.9113 78.9118 41.2373 78.977 41.585 79.0204Z" fill="#C6C5C4"/>
<path d="M42.6936 79.1726C42.4111 79.1291 42.1069 79.1074 41.8243 79.0639C42.1069 79.0856 42.3894 79.1291 42.6936 79.1726Z" fill="#C6C5C4"/>
<path d="M33.7615 76.8253C33.4355 76.6949 33.1095 76.5428 32.8053 76.4124C33.1095 76.5428 33.4355 76.6949 33.7615 76.8253Z" fill="#C6C5C4"/>
<path d="M32.6098 76.3255C32.3272 76.1951 32.0665 76.0647 31.8057 75.9343C32.0665 76.0647 32.3272 76.1951 32.6098 76.3255Z" fill="#C6C5C4"/>
<path d="M36.9345 77.9772C36.2608 77.7816 35.6089 77.5425 34.9569 77.3035C35.6089 77.5425 36.2826 77.7816 36.9345 77.9772Z" fill="#C6C5C4"/>
<path d="M34.7394 77.2165C34.4569 77.1079 34.1526 76.9992 33.8701 76.8688C34.1526 76.9992 34.4352 77.1079 34.7394 77.2165Z" fill="#C6C5C4"/>
</svg>
