<svg width="431" height="186" viewBox="0 0 431 186" fill="none" xmlns="http://www.w3.org/2000/svg">
<path d="M385.424 -59.0102C385.424 -59.0102 385.533 -64.3227 383.085 -67.17C378.481 -72.5384 371.782 -75.3569 363.958 -78.2838C343.482 -85.9451 329.665 -82.2223 329.665 -82.2223C329.665 -82.2223 345.472 -80.1162 356.721 -75.1308C367.822 -70.2147 373.565 -61.8916 378.198 -58.8072C380.212 -57.4617 383.929 -57.82 383.929 -57.82C383.929 -57.82 384.673 -56.0893 385.745 -54.3565C385.838 -54.1959 385.958 -54.0746 386.071 -53.9725C380.497 -52.8528 374.669 -51.4646 368.588 -49.7562L363.55 -54.278C363.55 -54.278 361.987 -61.3675 357.828 -64.4839C349.989 -70.3476 342.332 -71.9376 330.985 -73.6677C301.298 -78.2088 281.968 -69.7379 281.968 -69.7379C281.968 -69.7379 309.312 -69.9926 323.266 -67.7462C339.778 -65.0798 346.868 -54.8268 354.013 -52.014C357.119 -50.7925 361.956 -52.2844 361.956 -52.2844C361.956 -52.2844 363.244 -50.5349 364.972 -48.7069C357.754 -46.5698 350.187 -43.9819 342.315 -40.8789L334.206 -46.0923C334.206 -46.0923 328.881 -53.5409 323.53 -56.1115C313.441 -60.9565 306.414 -61.9012 293.611 -61.2319C260.253 -59.5026 241.27 -50.7191 241.27 -50.7191C241.27 -50.7191 270.984 -54.6399 286.78 -54.2415C305.469 -53.7703 315.898 -44.4077 324.423 -42.5313C328.13 -41.7121 332.999 -43.8643 332.999 -43.8643C332.999 -43.8643 335.877 -41.1131 338.441 -39.3088C332.614 -36.9244 326.61 -34.2531 320.444 -31.282L307.359 -36.9165C307.359 -36.9165 302.66 -43.4934 296.767 -45.4813C286.734 -48.8715 276.065 -47.6927 262.887 -46.0741C228.409 -41.8462 211.227 -28.1693 211.227 -28.1693C211.227 -28.1693 240.941 -36.3145 257.198 -38.1797C276.446 -40.3939 288.908 -32.6295 298.001 -31.9896C301.957 -31.7105 306.537 -34.5447 306.537 -34.5447C306.537 -34.5447 313.166 -30.8196 316.444 -29.3157C310.535 -26.3674 304.469 -23.1389 298.269 -19.5981L285.405 -23.0683C285.405 -23.0683 281.17 -27.9628 275.744 -29.0703C267.193 -30.817 258.527 -30.4079 245.432 -28.3182C211.153 -22.8507 193.734 -9.26136 193.734 -9.26136C193.734 -9.26136 223.09 -18.4694 239.254 -20.9285C258.395 -23.84 269.059 -19.2936 275.442 -19.4533C278.326 -19.5292 284.695 -20.6721 284.695 -20.6721C284.695 -20.6721 291.435 -18.8245 294.779 -17.5801C291.6 -15.7279 288.394 -13.7977 285.148 -11.7764C283.145 -10.5344 281.15 -9.26016 279.154 -7.973L264.323 -10.0788C264.323 -10.0788 259.428 -14.4213 253.872 -14.8674C245.12 -15.5699 236.568 -14.1143 223.837 -10.4572C190.534 -0.894387 175.124 14.6875 175.124 14.6875C175.124 14.6875 203.006 2.01803 218.737 -2.37633C237.355 -7.57119 248.592 -4.35824 254.921 -5.29358C257.78 -5.71204 263.942 -7.61561 263.942 -7.61561C263.942 -7.61561 271.571 -6.49753 274.867 -5.65366C275.07 -5.59804 275.259 -5.56812 275.447 -5.55113C270.732 -2.44352 266.068 0.773429 261.44 4.08694L248.056 4.10384C248.056 4.10384 243.725 1.66245 239.328 1.75137C232.701 1.8819 223.501 1.9873 210.996 6.269C178.288 17.4673 163.795 33.7878 163.795 33.7878C163.795 33.7878 190.912 19.7503 206.359 14.5897C224.657 8.48039 234.806 9.38491 241.069 8.14638C243.898 7.58599 247.172 6.0883 247.172 6.0883C247.172 6.0883 255.089 5.48834 258.799 5.99051C255.323 8.51937 251.876 11.1126 248.458 13.7571L235.194 16.2049C235.194 16.2049 232.96 14.571 228.669 15.2796C222.195 16.3397 212.689 18.364 200.484 23.1205C171.736 34.3067 156.916 50.1915 156.916 50.1915C156.916 50.1915 182.842 35.7812 195.847 31.3895C213.991 25.2563 223.073 23.2957 229.009 21.1881C231.685 20.235 234.647 18.2885 234.647 18.2885C234.647 18.2885 241.055 16.5823 244.453 16.7909C244.495 16.7904 244.53 16.7964 244.572 16.7959C240.163 20.2942 235.804 23.8889 231.495 27.567L220.007 30.8265C220.007 30.8265 210.822 30.1036 189.167 39.7172C165.29 50.3102 150.337 67.5812 150.337 67.5812C150.337 67.5812 172.463 53.569 184.64 48.3535C201.624 41.0836 210.223 38.5212 215.769 36.0369C218.276 34.9178 220.964 32.8261 220.964 32.8261C220.964 32.8261 225.139 30.9674 228.535 30.1151C226.216 32.131 223.918 34.166 221.642 36.233C219.365 38.3001 217.11 40.3863 214.883 42.4851L206.761 45.6948C206.761 45.6948 196.037 48.7891 180.095 57.6887C159.306 69.2836 146.828 82.8159 146.828 82.8159C146.828 82.8159 159.584 73.4397 170.535 68.2788C198.55 55.0642 207.854 47.4856 207.854 47.4856C207.854 47.4856 209.672 46.4336 211.797 45.4424C207.461 49.619 203.251 53.8587 199.195 58.1094L189.914 63.0935C189.914 63.0935 183.202 65.0236 170.059 74.2171C152.916 86.205 145.562 97.446 145.562 97.446C145.562 97.446 154.199 90.8981 163.34 85.4822C186.744 71.6283 190.907 65.1638 190.907 65.1638C190.907 65.1638 192.585 64.1007 194.659 62.9484C187.648 70.5557 181.161 78.2016 175.334 85.7291C170.903 88.6972 164.411 94.59 158.244 105.958C152.762 116.056 148.458 131.249 146.599 138.428L147.655 139.585C153.158 130.871 166.556 105.676 177.428 88.2445C183.439 80.4236 190.166 72.4706 197.478 64.5618C196.912 66.7556 196.074 68.9853 196.074 68.9853C196.074 68.9853 194.427 70.7661 193.595 72.4524C191.762 76.1828 189.083 82.1624 183.733 93.5781C179.896 101.766 168.306 119.724 168.306 119.724C168.306 119.724 182.767 106.412 191.309 90.6795C199.735 75.1875 197.827 69.6873 197.827 69.6873L199.935 61.9296C204.272 57.3195 208.79 52.733 213.469 48.2026C212.809 51.1287 211.389 54.5433 211.389 54.5433C211.389 54.5433 209.481 57.0196 208.546 59.2635C206.466 64.2392 204.517 71.859 198.456 87.0748C194.116 97.9729 179.933 121.528 179.933 121.528C179.933 121.528 196.545 103.842 205.441 82.4307C213.502 63.0101 213.463 55.2153 213.463 55.2153L215.648 46.1109C218.363 43.5207 221.113 40.9494 223.919 38.4033C225.996 36.5264 228.081 34.6688 230.186 32.8303C229.845 36.134 227.658 41.3827 227.658 41.3827C227.658 41.3827 225.62 44.0354 224.618 46.4354C222.39 51.7753 220.309 59.9402 213.825 76.2159C209.175 87.8814 195.841 109.446 195.841 109.446C195.841 109.446 213.223 94.2662 222.745 71.3528C231.378 50.5728 229.886 42.1304 229.886 42.1304L232.616 30.7613C237.303 26.7225 242.054 22.7928 246.884 18.9721C246.507 22.1792 245.296 26.0633 245.296 26.0633C245.296 26.0633 243.518 28.8744 242.74 31.3491C241.03 36.8376 238.322 44.0661 233.413 60.8067C229.898 72.807 217.164 95.3346 217.164 95.3346C217.164 95.3346 235.95 79.9034 243.245 56.2942C249.861 34.8803 247.569 26.5969 247.569 26.5969L248.868 17.4069C252.713 14.3946 256.601 11.4593 260.524 8.59478C260.581 11.8869 258.825 17.5376 258.825 17.5376C258.825 17.5376 257.047 20.3487 256.269 22.8235C254.559 28.3119 255.971 35.1251 251.07 51.8721C247.548 63.8789 238.085 82.3278 238.085 82.3278C238.085 82.3278 251.034 72.3734 258.329 48.7641C264.945 27.3502 261.105 18.0776 261.105 18.0776L262.655 7.03418C267.366 3.64198 272.133 0.352536 276.938 -2.82739C276.922 0.756728 276.096 6.16263 276.096 6.16263C276.096 6.16263 274.319 8.9737 273.54 11.4485C271.83 16.9369 273.243 23.7502 268.341 40.4972C264.819 52.5039 255.933 74.0894 255.933 74.0894C255.933 74.0894 270.154 60.5735 277.448 36.9643C284.065 15.5504 278.377 6.70257 278.377 6.70257L280.003 -4.83345C282.316 -6.33169 284.629 -7.817 286.956 -9.26369C290.113 -11.2256 293.236 -13.103 296.325 -14.9089C296.399 -11.3582 295.484 -5.39485 295.484 -5.39485C295.484 -5.39485 292.592 -1.62494 291.75 0.83122C289.419 7.66029 291.734 13.3363 286.833 30.0833C283.318 42.0835 274.288 64.3565 274.288 64.3565C274.288 64.3565 290.509 50.3233 297.804 26.7141C304.42 5.30017 298.859 -4.87544 298.859 -4.87544L300.327 -17.2051C306.057 -20.4681 311.665 -23.4708 317.145 -26.2195C317.288 -22.7216 316.31 -16.3692 316.31 -16.3692C316.31 -16.3692 313.417 -12.5993 312.576 -10.1431C310.245 -3.31404 314.542 2.51761 309.641 19.2646C306.125 31.2648 295.121 53.3757 295.121 53.3757C295.121 53.3757 312.731 40.379 320.025 16.7698C326.635 -4.63756 319.677 -15.8562 319.677 -15.8562L321.145 -28.1988C327.471 -31.2689 333.62 -34.0133 339.585 -36.4642C339.728 -32.9662 338.756 -26.6204 338.756 -26.6204C338.756 -26.6204 335.864 -22.8505 335.022 -20.3943C332.691 -13.5653 336.989 -7.73361 332.088 9.01339C328.572 21.0136 317.568 43.1244 317.568 43.1244C317.568 43.1244 335.177 30.1278 342.472 6.51857C349.088 -14.8954 342.124 -26.1074 342.124 -26.1074L343.542 -38.0612C350.916 -40.9637 358.003 -43.4096 364.79 -45.4506C364.903 -42.1463 364.206 -36.9944 364.206 -36.9944C364.206 -36.9944 361.44 -33.5819 360.672 -31.3402C358.549 -25.0895 362.967 -19.6088 358.553 -4.2589C355.392 6.73405 345.077 26.8888 345.077 26.8888C345.077 26.8888 362.198 15.3023 368.784 -6.31827C374.765 -25.9321 367.56 -36.4424 367.56 -36.4424L368.559 -46.5536C374.501 -48.2473 380.204 -49.6339 385.652 -50.7649C385.988 -47.8581 385.443 -42.8246 385.443 -42.8246C385.443 -42.8246 382.845 -39.8865 382.177 -37.9113C380.321 -32.4274 384.899 -27.4016 381.135 -13.9038C378.435 -4.22997 369.029 13.3513 369.029 13.3513C369.029 13.3513 385.495 3.62331 391.172 -15.3849C396.316 -32.6267 388.791 -42.2142 388.791 -42.2142L389.405 -51.4989C396.364 -52.8111 402.889 -53.6972 408.974 -54.2412C408.989 -51.7767 408.261 -48.274 408.261 -48.274C408.261 -48.274 404.888 -45.4359 404.32 -43.766C402.751 -39.1204 406.642 -34.8685 403.459 -23.4612C401.183 -15.2808 393.214 -0.422158 393.214 -0.422158C393.214 -0.422158 407.173 -8.63639 411.966 -24.7157C416.314 -39.2949 410.663 -48.5054 410.663 -48.5054L411.359 -52.7646L406.575 -57.0827C400.951 -56.5187 394.969 -55.6655 388.629 -54.4712L385.424 -59.0102Z" fill="url(#paint0_linear)"/>
<path d="M319.681 -67.3758C319.681 -67.3758 320.8 -72.5868 318.933 -75.7908C315.424 -81.8299 309.366 -85.7029 302.224 -89.8669C283.529 -100.766 269.221 -99.3684 269.221 -99.3684C269.221 -99.3684 284.377 -94.7027 294.5 -87.9507C304.49 -81.2911 308.557 -72.1571 312.53 -68.3613C314.256 -66.7066 317.983 -66.4496 317.983 -66.4496C317.983 -66.4496 318.385 -64.6242 319.11 -62.7428C319.171 -62.5695 319.266 -62.4303 319.358 -62.3114C313.658 -62.1236 307.658 -61.7131 301.347 -61.0291L297.25 -66.306C297.25 -66.306 297.062 -73.5402 293.561 -77.2898C286.962 -84.3471 279.729 -87.168 268.89 -90.732C240.535 -100.071 219.897 -94.9042 219.897 -94.9042C219.897 -94.9042 246.858 -90.6698 260.165 -86.1698C275.909 -80.837 280.934 -69.5826 287.431 -65.6421C290.256 -63.9302 295.301 -64.6053 295.301 -64.6053C295.301 -64.6053 296.235 -62.6721 297.588 -60.5895C290.077 -59.67 282.136 -58.3639 273.797 -56.6011L266.809 -63.0624C266.809 -63.0624 262.986 -71.2673 258.209 -74.675C249.201 -81.0987 242.465 -83.1811 229.736 -84.6223C196.574 -88.3918 176.217 -82.8603 176.217 -82.8603C176.217 -82.8603 206.21 -81.8455 221.681 -78.8625C239.986 -75.3332 248.468 -64.4074 256.502 -61.1621C259.994 -59.7478 265.196 -61.0675 265.196 -61.0675C265.196 -61.0675 267.505 -57.8876 269.685 -55.6911C263.496 -54.2999 257.078 -52.6555 250.442 -50.7427L238.636 -58.4348C238.636 -58.4348 235.264 -65.6789 229.843 -68.602C220.614 -73.5845 209.888 -74.1742 196.608 -74.7428C161.868 -76.2367 142.352 -65.5934 142.352 -65.5934C142.352 -65.5934 173.15 -68.7365 189.506 -67.9058C208.873 -66.9279 219.659 -57.2417 228.487 -55.1204C232.328 -54.1967 237.375 -56.2352 237.375 -56.2352C237.375 -56.2352 243.191 -51.4814 246.131 -49.4634C239.753 -47.5308 233.168 -45.348 226.392 -42.88L214.391 -48.4056C214.391 -48.4056 211.155 -53.9176 206.025 -55.8978C197.941 -59.0196 189.333 -60.0384 176.047 -60.1295C141.267 -60.3707 121.533 -49.8525 121.533 -49.8525C121.533 -49.8525 152.181 -54.1003 168.559 -53.8695C187.953 -53.5956 197.583 -47.3715 203.896 -46.4818C206.749 -46.0833 213.235 -46.1636 213.235 -46.1636C213.235 -46.1636 219.518 -43.2395 222.572 -41.4662C219.09 -40.1646 215.567 -38.7906 211.987 -37.3335C209.779 -36.4397 207.572 -35.5128 205.363 -34.5732L191.167 -39.0785C191.167 -39.0785 187.176 -44.1557 181.792 -45.506C173.312 -47.6331 164.617 -47.6032 151.391 -46.0918C116.79 -42.1422 98.6545 -29.3333 98.6545 -29.3333C98.6545 -29.3333 128.511 -37.2298 144.831 -38.9747C164.146 -41.0339 174.594 -36.0284 181.002 -35.9108C183.895 -35.8538 190.322 -36.7167 190.322 -36.7167C190.322 -36.7167 197.618 -34.3649 200.702 -32.9936C200.891 -32.9056 201.071 -32.8452 201.253 -32.7976C196.021 -30.5122 190.817 -28.111 185.631 -25.6088L172.454 -27.7875C172.454 -27.7875 168.657 -30.9008 164.312 -31.5345C157.764 -32.4931 148.689 -33.8984 135.565 -31.7353C101.24 -26.0782 83.8667 -12.3918 83.8667 -12.3918C83.8667 -12.3918 113.23 -21.7605 129.417 -24.3061C148.59 -27.3179 158.408 -24.7628 164.807 -24.9547C167.698 -25.0423 171.207 -25.9792 171.207 -25.9792C171.207 -25.9792 179.113 -25.2711 182.669 -24.1685C178.766 -22.2495 174.88 -20.2625 171.012 -18.2202L157.49 -17.9867C157.49 -17.9867 155.602 -19.9612 151.245 -19.9676C144.67 -19.9861 134.929 -19.553 122.01 -16.8732C91.5835 -10.5786 73.9714 2.62521 73.9714 2.62521C73.9714 2.62521 102.234 -7.30576 115.87 -9.4951C134.897 -12.5556 144.209 -12.9956 150.453 -14.0965C153.269 -14.5955 156.555 -16.0256 156.555 -16.0256C156.555 -16.0256 163.187 -16.6537 166.492 -15.8911C166.533 -15.8848 166.567 -15.8731 166.608 -15.8668C161.602 -13.1468 156.627 -10.3236 151.685 -7.41017L139.757 -6.08643C139.757 -6.08643 130.855 -8.30441 107.71 -2.39415C82.1908 4.11559 64.1842 18.662 64.1842 18.662C64.1842 18.662 88.6302 8.4996 101.609 5.36356C119.71 0.994032 128.662 -0.117619 134.594 -1.65305C137.275 -2.34331 140.318 -3.96134 140.318 -3.96134C140.318 -3.96134 144.782 -5.10575 148.287 -5.38762C145.621 -3.78389 142.971 -2.15785 140.337 -0.496722C137.703 1.16439 135.085 2.8478 132.493 4.54821L123.888 6.37513C123.888 6.37513 112.744 7.66175 95.3574 13.8063C72.6879 21.8088 57.8289 33.0813 57.8289 33.0813C57.8289 33.0813 72.1701 25.9451 83.9316 22.6616C114.022 14.2502 124.623 8.31709 124.623 8.31709C124.623 8.31709 126.612 7.57982 128.893 6.95279C123.83 10.3524 118.878 13.8348 114.076 17.3532L103.993 20.7366C103.993 20.7366 97.0186 21.5353 82.3321 28.4284C63.175 37.4156 53.7961 47.2733 53.7961 47.2733C53.7961 47.2733 63.5441 42.2452 73.5733 38.4141C99.2472 28.6171 104.576 22.9372 104.576 22.9372C104.576 22.9372 106.43 22.1661 108.691 21.3721C100.341 27.7097 92.5 34.1712 85.3312 40.6243C80.4046 42.8189 72.8919 47.554 64.6571 57.7315C57.3385 66.7711 50.2083 81.019 47.0117 87.78L47.8306 89.0923C54.906 81.4184 72.892 58.8177 86.9132 43.4436C94.3188 36.7318 102.454 30.0073 111.158 23.4225C110.183 25.4889 108.933 27.546 108.933 27.546C108.933 27.546 106.973 29.0287 105.833 30.5519C103.318 33.9228 99.5433 39.369 92.1028 49.7274C86.7666 57.1566 71.9393 72.9316 71.9393 72.9316C71.9393 72.9316 88.7081 62.2012 100.112 48.1171C111.356 34.2511 110.525 28.5246 110.525 28.5246L114.077 21.2347C119.224 17.4085 124.545 13.6354 130.013 9.94388C128.806 12.7156 126.758 15.8435 126.758 15.8435C126.758 15.8435 124.409 17.9679 123.061 20.023C120.066 24.5792 116.696 31.7593 107.833 45.7415C101.485 55.7561 83.0392 76.6144 83.0392 76.6144C83.0392 76.6144 102.759 61.9309 115.593 42.3162C127.226 24.5236 128.671 16.845 128.671 16.845L132.556 8.24247C135.721 6.13832 138.918 4.05858 142.165 2.01281C144.567 0.50618 146.972 -0.980245 149.395 -2.44436C148.43 0.751334 145.278 5.5587 145.278 5.5587C145.278 5.5587 142.767 7.83538 141.323 10.0331C138.113 14.9235 134.51 22.6186 125.028 37.5745C118.23 48.2937 100.998 67.332 100.998 67.332C100.998 67.332 120.998 55.2418 134.734 34.2511C147.189 15.2143 147.328 6.66 147.328 6.66L152.18 -4.08227C157.563 -7.28872 162.988 -10.3772 168.469 -13.3456C167.487 -10.2509 165.555 -6.62647 165.555 -6.62647C165.555 -6.62647 163.27 -4.15121 162.033 -1.84313C159.305 3.27848 155.262 9.94898 147.243 25.6209C141.497 36.8556 124.673 56.9399 124.673 56.9399C124.673 56.9399 146.103 44.833 157.779 22.792C168.369 2.80048 167.691 -5.72838 167.691 -5.72838L170.72 -14.5606C175.078 -16.8949 179.464 -19.1462 183.871 -21.3221C183.299 -18.0726 180.495 -12.7989 180.495 -12.7989C180.495 -12.7989 178.21 -10.3236 176.972 -8.01551C174.244 -2.89391 174.337 4.04373 166.323 19.7231C160.569 30.9631 147.742 47.5693 147.742 47.5693C147.742 47.5693 162.383 39.8958 174.06 17.8547C184.65 -2.13679 182.637 -11.8933 182.637 -11.8933L186.266 -22.5086C191.548 -25.0748 196.867 -27.5304 202.202 -29.8722C201.503 -26.3472 199.661 -21.1618 199.661 -21.1618C199.661 -21.1618 197.376 -18.6865 196.138 -16.3784C193.41 -11.2568 193.503 -4.31919 185.489 11.3602C179.735 22.6002 166.878 42.3882 166.878 42.3882C166.878 42.3882 183.449 31.4178 195.125 9.37675C205.716 -10.6148 201.803 -20.2563 201.803 -20.2563L205.601 -31.3439C208.162 -32.4392 210.722 -33.5217 213.288 -34.5638C216.769 -35.9771 220.2 -37.3128 223.584 -38.5835C222.981 -35.0766 220.945 -29.3572 220.945 -29.3572C220.945 -29.3572 217.38 -26.1211 216.084 -23.8416C212.489 -17.5024 213.687 -11.5359 205.673 4.14345C199.927 15.3781 186.798 35.8194 186.798 35.8194C186.798 35.8194 205.436 24.6678 217.113 2.62676C227.703 -17.3648 224.168 -28.2924 224.168 -28.2924L227.961 -40.1872C234.222 -42.4589 240.314 -44.4943 246.231 -46.3009C245.706 -42.8346 243.533 -36.7428 243.533 -36.7428C243.533 -36.7428 239.968 -33.5066 238.672 -31.2272C235.077 -24.888 238.196 -18.4432 230.182 -2.76386C224.437 8.47082 209.394 28.4285 209.394 28.4285C209.394 28.4285 229.202 18.5249 240.878 -3.51608C251.461 -23.5023 246.75 -35.6854 246.75 -35.6854L250.545 -47.593C257.356 -49.5772 263.931 -51.2697 270.269 -52.7036C269.744 -49.2372 267.579 -43.1508 267.579 -43.1508C267.579 -43.1508 264.014 -39.9146 262.717 -37.6352C259.123 -31.2959 262.242 -24.8512 254.228 -9.17182C248.482 2.06285 233.44 22.0205 233.44 22.0205C233.44 22.0205 253.248 12.117 264.924 -9.92405C275.515 -29.9156 270.795 -42.0934 270.795 -42.0934L274.468 -53.6265C282.278 -55.2737 289.72 -56.5186 296.789 -57.4142C296.27 -54.1435 294.603 -49.187 294.603 -49.187C294.603 -49.187 291.231 -46.2818 290.048 -44.2014C286.768 -38.3975 290.072 -32.2783 282.805 -17.8941C277.6 -7.59267 263.608 10.5527 263.608 10.5527C263.608 10.5527 282.667 1.95702 293.266 -18.243C302.889 -36.5669 297.799 -48.0935 297.799 -48.0935L300.709 -57.8816C306.88 -58.574 312.756 -59.0034 318.334 -59.223C318.112 -56.3068 316.616 -51.4419 316.616 -51.4419C316.616 -51.4419 313.499 -48.9763 312.466 -47.1417C309.595 -42.0486 313.144 -36.3509 306.868 -23.6831C302.368 -14.6045 289.761 1.1571 289.761 1.1571C289.761 1.1571 307.821 -5.71676 317.029 -23.4947C325.376 -39.6211 319.795 -50.292 319.795 -50.292L322.168 -59.3298C329.267 -59.48 335.859 -59.2817 341.951 -58.8192C341.497 -56.3909 340.113 -53.0628 340.113 -53.0628C340.113 -53.0628 336.252 -50.8227 335.376 -49.2722C332.947 -44.9571 335.966 -40.1339 330.661 -29.4283C326.863 -21.75 316.19 -8.43237 316.19 -8.43237C316.19 -8.43237 331.493 -14.2277 339.273 -29.2677C346.329 -42.9041 342.521 -52.8967 342.521 -52.8967L344.017 -56.9746L340.131 -62.0094C334.488 -62.3767 328.438 -62.5182 321.97 -62.3826L319.681 -67.3758Z" fill="url(#paint1_linear)"/>
<defs>
<linearGradient id="paint0_linear" x1="170.131" y1="89.876" x2="357.862" y2="-51.7205" gradientUnits="userSpaceOnUse">
<stop stop-color="#87D4FF"/>
<stop offset="1" stop-color="#67C8FF"/>
</linearGradient>
<linearGradient id="paint1_linear" x1="79.4203" y1="43.8525" x2="292.4" y2="-62.2398" gradientUnits="userSpaceOnUse">
<stop stop-color="#A1F4FA"/>
<stop offset="0.552083" stop-color="#C4B5FF"/>
<stop offset="1" stop-color="#A59DFF"/>
</linearGradient>
</defs>
</svg>
