<svg width="133" height="40" viewBox="0 0 133 40" fill="none" xmlns="http://www.w3.org/2000/svg">
<g clip-path="url(#clip0)">
<rect x="0.5" y="0.5" width="132" height="39" rx="7.5" fill="black"/>
<path d="M35.5545 23.9423C34.7495 23.9426 34.0969 23.2808 34.0967 22.4644C34.0964 21.648 34.7489 20.9862 35.5539 20.9859C36.3589 20.9856 37.0114 21.6475 37.0117 22.4638C37.0109 23.2797 36.3589 23.9409 35.5545 23.9423ZM19.4455 23.9423C18.6406 23.9426 17.988 23.2808 17.9877 22.4644C17.9875 21.648 18.64 20.9862 19.445 20.9859C20.25 20.9856 20.9025 21.6475 20.9028 22.4638C20.902 23.2797 20.2502 23.9412 19.4455 23.9423ZM36.0771 15.0389L38.9897 9.9227C39.1572 9.62885 39.0581 9.25282 38.7683 9.08291C38.4786 8.91301 38.1078 9.01356 37.9403 9.30742L34.9909 14.4882C32.7355 13.4443 30.2025 12.8629 27.4997 12.8629C24.797 12.8629 22.2642 13.4451 20.0088 14.4882L17.0597 9.30742C16.8924 9.01356 16.5217 8.91273 16.2319 9.08236C15.9422 9.25199 15.8428 9.62801 16.01 9.92187L18.9229 15.0389C13.9214 17.7978 10.5004 22.9329 10 29H45C44.4991 22.9329 41.0784 17.7978 36.0771 15.0389Z" fill="#3DDC84"/>
<mask id="path-3-outside-1" maskUnits="userSpaceOnUse" x="54" y="7" width="70" height="24" fill="black">
<rect fill="white" x="54" y="7" width="70" height="24"/>
<path fill-rule="evenodd" clip-rule="evenodd" d="M67.3712 10.5836C67.3712 11.3157 67.1115 11.9283 66.5932 12.4216C66.0691 12.9194 65.4288 13.1683 64.67 13.1683C63.9065 13.1683 63.265 12.9194 62.7468 12.4216C62.2274 11.9283 61.9689 11.3157 61.9689 10.5836C61.9689 9.85154 62.2286 9.23887 62.7468 8.74557C63.2638 8.2489 63.9053 8 64.6688 8C65.4324 8 66.0738 8.25115 66.592 8.75346C67.1115 9.24562 67.3712 9.85605 67.3712 10.5836ZM62.657 10.5836C62.657 11.1546 62.8485 11.6265 63.2303 12.0004C63.6168 12.3732 64.0956 12.5602 64.6688 12.5602C65.2421 12.5602 65.7184 12.3732 66.1002 12.0004C66.4867 11.6321 66.6806 11.1602 66.6806 10.5836C66.6806 10.0081 66.4867 9.53619 66.1002 9.16679C65.7184 8.79513 65.2421 8.60817 64.6688 8.60817C64.0956 8.60817 63.6168 8.79513 63.2303 9.16791C62.8485 9.5407 62.657 10.0126 62.657 10.5836Z"/>
<path fill-rule="evenodd" clip-rule="evenodd" d="M60.5052 14.1076H61.1527V12.4509H60.5722V8.1115H57.2536C57.244 8.1115 57.2392 8.11826 57.2392 8.13177V9.75469C57.2392 10.3719 57.1829 10.9181 57.0704 11.3922C56.928 11.9081 56.7545 12.2606 56.5486 12.4498H56.0568V14.1076H56.7102V13.0568H60.5052V14.1076ZM57.8998 9.90673V8.7253H59.8889V12.4498H57.3194C57.7059 11.7954 57.8998 10.9474 57.8998 9.90673Z"/>
<path d="M111.394 18.1339C111.647 17.8952 111.774 17.6057 111.774 17.2656C111.774 16.9255 111.646 16.6371 111.394 16.3984C111.139 16.1596 110.831 16.0402 110.471 16.0402C110.111 16.0402 109.803 16.1596 109.549 16.3984C109.296 16.6371 109.169 16.9255 109.169 17.2656C109.169 17.6057 109.296 17.8952 109.549 18.1339C109.802 18.3727 110.109 18.4921 110.471 18.4921C110.832 18.4921 111.14 18.3727 111.394 18.1339Z"/>
<path d="M111.392 29.6982V20.454H109.548V29.6982H111.392Z"/>
<path fill-rule="evenodd" clip-rule="evenodd" d="M55 29.6982H57.0453L58.4479 26.0379H64.4821L65.8656 29.6982H67.9109L62.4978 16.19H60.413L55 29.6982ZM59.0691 24.4161L61.4148 18.322H61.4949L63.8406 24.4161H59.0691Z"/>
<path d="M71.0381 20.454H69.2728V29.6982H71.1171V24.585C71.1171 23.8057 71.3648 23.1356 71.8591 22.5758C72.3533 22.0172 72.9685 21.7368 73.7033 21.7368C75.2807 21.7368 76.0897 22.4913 76.1292 24.0005V29.6982H77.9734V23.8879C77.9734 22.6929 77.6503 21.7717 77.0017 21.1241C76.353 20.4765 75.4279 20.1521 74.2251 20.1521C73.5968 20.1521 72.9924 20.3031 72.4108 20.6049C71.8304 20.9067 71.3983 21.284 71.1183 21.7368H71.0381V20.454Z"/>
<path fill-rule="evenodd" clip-rule="evenodd" d="M84.2494 30C82.9664 30 81.8642 29.5225 80.9415 28.5663C80.0319 27.5977 79.5783 26.4343 79.5783 25.0761C79.5783 23.7178 80.0319 22.5544 80.9415 21.5858C81.8642 20.6297 82.9664 20.1521 84.2494 20.1521C84.971 20.1521 85.6293 20.2974 86.2241 20.5857C86.8189 20.8752 87.2772 21.2581 87.5968 21.7368H87.677L87.5968 20.454V16.19H89.441V29.6982H87.677V28.4154H87.5968C87.276 28.8929 86.8177 29.277 86.2241 29.5664C85.6293 29.8547 84.971 30 84.2494 30ZM84.5498 28.4154C85.4581 28.4154 86.2001 28.1068 86.7746 27.4907C87.3766 26.8747 87.677 26.0694 87.677 25.0761C87.677 24.1075 87.3766 23.309 86.7746 22.6806C86.1858 22.0521 85.445 21.7368 84.5498 21.7368C83.6677 21.7368 82.9257 22.051 82.3249 22.6806C81.723 23.3101 81.4226 24.1086 81.4226 25.0761C81.4226 26.057 81.723 26.8555 82.3249 27.4716C82.9257 28.1012 83.6677 28.4154 84.5498 28.4154Z"/>
<path d="M91.6862 29.6982H93.5292V24.6053C93.5292 23.9003 93.7865 23.2842 94.3012 22.756C94.8158 22.2267 95.4201 21.9631 96.1155 21.9631C96.6097 21.9631 96.9712 22.0071 97.1986 22.0949L97.7598 20.4157C97.3853 20.2648 96.9317 20.1893 96.3967 20.1893C95.8354 20.1893 95.2646 20.3627 94.6829 20.7085C94.1013 21.0543 93.7171 21.4721 93.5304 21.9631H93.4502V20.454H91.6862V29.6982Z"/>
<path fill-rule="evenodd" clip-rule="evenodd" d="M97.8005 25.0761C97.8005 23.6548 98.2745 22.479 99.2235 21.5487C100.186 20.6184 101.396 20.1521 102.852 20.1521C104.309 20.1521 105.511 20.6173 106.46 21.5487C107.423 22.4801 107.904 23.6559 107.904 25.0761C107.904 26.5098 107.423 27.6856 106.46 28.6035C105.511 29.5349 104.309 30 102.852 30C101.396 30 100.186 29.5349 99.2235 28.6035C98.2745 27.6732 97.8005 26.4974 97.8005 25.0761ZM99.6448 25.0761C99.6448 26.0694 99.9524 26.8747 100.568 27.4907C101.181 28.1068 101.944 28.4154 102.853 28.4154C103.762 28.4154 104.524 28.1068 105.139 27.4907C105.753 26.8747 106.061 26.0694 106.061 25.0761C106.061 24.0951 105.753 23.2966 105.139 22.6806C104.511 22.0521 103.749 21.7368 102.853 21.7368C101.958 21.7368 101.196 22.051 100.568 22.6806C99.9524 23.2966 99.6448 24.0951 99.6448 25.0761Z"/>
<path fill-rule="evenodd" clip-rule="evenodd" d="M117.808 30C116.525 30 115.423 29.5225 114.5 28.5663C113.591 27.5977 113.137 26.4343 113.137 25.0761C113.137 23.7178 113.591 22.5544 114.5 21.5858C115.423 20.6297 116.525 20.1521 117.808 20.1521C118.53 20.1521 119.188 20.2974 119.783 20.5857C120.378 20.8752 120.836 21.2581 121.156 21.7368H121.236L121.156 20.454V16.19H123V29.6982H121.236V28.4154H121.156C120.835 28.8929 120.377 29.277 119.783 29.5664C119.188 29.8547 118.53 30 117.808 30ZM118.109 28.4154C119.017 28.4154 119.759 28.1068 120.334 27.4907C120.936 26.8747 121.236 26.0694 121.236 25.0761C121.236 24.1075 120.936 23.309 120.334 22.6806C119.745 22.0521 119.004 21.7368 118.109 21.7368C117.227 21.7368 116.485 22.051 115.884 22.6806C115.282 23.3101 114.982 24.1086 114.982 25.0761C114.982 26.057 115.282 26.8555 115.884 27.4716C116.485 28.1012 117.227 28.4154 118.109 28.4154Z"/>
<path d="M68.8755 12.4295C69.3997 12.9217 70.0507 13.1683 70.8287 13.1683C71.2451 13.1683 71.6341 13.0906 71.9943 12.9386C72.3569 12.7843 72.6621 12.5669 72.9123 12.2854L72.4204 11.836C71.9704 12.3191 71.439 12.5613 70.8275 12.5613C70.2446 12.5613 69.7575 12.3766 69.3662 12.0083C68.9796 11.6445 68.7858 11.1692 68.7858 10.5847C68.7858 9.99908 68.9796 9.52493 69.3662 9.16116C69.7575 8.79287 70.2446 8.60817 70.8275 8.60817C71.4151 8.60817 71.8974 8.82328 72.2744 9.25125L72.7591 8.80864C72.2648 8.26917 71.6221 8 70.8287 8C70.046 8 69.3949 8.2489 68.8755 8.7467C68.3573 9.23549 68.0976 9.84816 68.0976 10.5847C68.0976 11.3213 68.3561 11.9362 68.8755 12.4295Z"/>
<path d="M75.6816 8.71854V13.058H75.0066V8.71854H73.5382V8.11037H77.1501V8.71854H75.6816Z"/>
<path d="M79.9098 11.0949C79.9098 11.0814 79.4646 10.0869 78.5742 8.11037H77.7736L79.5807 11.8349C79.4922 12.0184 79.4287 12.1457 79.3892 12.2144C79.2815 12.4813 79.096 12.6153 78.8315 12.6153C78.6999 12.6153 78.5718 12.5849 78.4498 12.5252C78.4402 12.5252 78.3792 12.7235 78.2667 13.1199C78.4773 13.1976 78.646 13.237 78.7729 13.237C78.974 13.237 79.1523 13.1999 79.3091 13.1267C79.3821 13.0996 79.4778 13.0444 79.5951 12.9611C79.7267 12.8316 79.8392 12.6964 79.9326 12.5534L82.076 8.11037H81.2754C80.4041 10.0543 79.9637 11.0487 79.9541 11.0949H79.9098Z"/>
<path d="M82.8623 13.058V8.11037H86.8416V13.0568H86.1666V8.70503H83.5385V13.058H82.8623Z"/>
<path d="M88.0827 13.058H88.7577V10.8257H91.3858V13.0568H92.0608V8.11037H91.3858V10.2311H88.7577V8.11037H88.0827V13.058Z"/>
<path fill-rule="evenodd" clip-rule="evenodd" d="M98.4492 10.5836C98.4492 11.3157 98.1895 11.9283 97.6713 12.4216C97.1471 12.9194 96.5068 13.1683 95.7481 13.1683C94.9845 13.1683 94.343 12.9194 93.8248 12.4216C93.3054 11.9283 93.0469 11.3157 93.0469 10.5836C93.0469 9.85154 93.3066 9.23887 93.8248 8.74557C94.3419 8.2489 94.9833 8 95.7469 8C96.5104 8 97.1519 8.25115 97.6701 8.75346C98.1895 9.24562 98.4492 9.85605 98.4492 10.5836ZM93.7351 10.5836C93.7351 11.1546 93.9266 11.6265 94.3083 12.0004C94.6949 12.3732 95.1748 12.5602 95.7469 12.5602C96.3201 12.5602 96.7965 12.3732 97.1782 12.0004C97.5648 11.6321 97.7587 11.1602 97.7587 10.5836C97.7587 10.0081 97.5648 9.53619 97.1782 9.16679C96.7965 8.794 96.3189 8.60704 95.7469 8.60704C95.1736 8.60704 94.6949 8.794 94.3083 9.16679C93.9266 9.5407 93.7351 10.0126 93.7351 10.5836Z"/>
<path fill-rule="evenodd" clip-rule="evenodd" d="M105.57 14.1076H106.216V12.4509H105.636V8.1115H102.317C102.308 8.1115 102.303 8.11826 102.303 8.13177V9.75469C102.303 10.3719 102.247 10.9181 102.134 11.3922C101.992 11.9081 101.818 12.2606 101.612 12.4498H101.12V14.1076H101.774V13.0568H105.57V14.1076ZM102.963 9.90673V8.7253H104.953V12.4498H102.383C102.77 11.7954 102.963 10.9474 102.963 9.90673Z"/>
<path d="M111.437 13.0568H110.753V8.7253H108.603V11.0262C108.603 12.0995 108.375 12.7426 107.919 12.9543C107.739 13.0602 107.533 13.1131 107.303 13.1131H107.214C107.21 13.1131 107.207 13.1154 107.207 13.1199C107.193 13.1154 107.183 13.1131 107.177 13.1131C107.119 13.1131 107.043 13.1064 106.95 13.0929V12.4712C107.009 12.4892 107.062 12.4993 107.112 12.4993H107.273C107.454 12.4993 107.611 12.407 107.743 12.2234C107.861 11.97 107.919 11.5206 107.919 10.8764V8.11037H111.437V13.0568Z"/>
<path fill-rule="evenodd" clip-rule="evenodd" d="M114.395 11.0544H115.143V13.058H115.818V8.1115H114.027C113.572 8.1115 113.184 8.25228 112.863 8.53609C112.543 8.81878 112.382 9.16791 112.382 9.58237C112.382 9.92362 112.502 10.2266 112.739 10.4912C112.977 10.7559 113.276 10.926 113.639 10.9992L113.653 11.0195L112.178 13.0298V13.058H112.978L114.395 11.0544ZM113.342 8.97758C113.52 8.80526 113.744 8.71854 114.013 8.71854H115.144V10.4597H114.058C113.784 10.4597 113.551 10.3752 113.36 10.2074C113.17 10.0396 113.074 9.83127 113.074 9.58237C113.074 9.35149 113.164 9.14989 113.342 8.97758Z"/>
</mask>
<path fill-rule="evenodd" clip-rule="evenodd" d="M67.3712 10.5836C67.3712 11.3157 67.1115 11.9283 66.5932 12.4216C66.0691 12.9194 65.4288 13.1683 64.67 13.1683C63.9065 13.1683 63.265 12.9194 62.7468 12.4216C62.2274 11.9283 61.9689 11.3157 61.9689 10.5836C61.9689 9.85154 62.2286 9.23887 62.7468 8.74557C63.2638 8.2489 63.9053 8 64.6688 8C65.4324 8 66.0738 8.25115 66.592 8.75346C67.1115 9.24562 67.3712 9.85605 67.3712 10.5836ZM62.657 10.5836C62.657 11.1546 62.8485 11.6265 63.2303 12.0004C63.6168 12.3732 64.0956 12.5602 64.6688 12.5602C65.2421 12.5602 65.7184 12.3732 66.1002 12.0004C66.4867 11.6321 66.6806 11.1602 66.6806 10.5836C66.6806 10.0081 66.4867 9.53619 66.1002 9.16679C65.7184 8.79513 65.2421 8.60817 64.6688 8.60817C64.0956 8.60817 63.6168 8.79513 63.2303 9.16791C62.8485 9.5407 62.657 10.0126 62.657 10.5836Z" fill="white"/>
<path fill-rule="evenodd" clip-rule="evenodd" d="M60.5052 14.1076H61.1527V12.4509H60.5722V8.1115H57.2536C57.244 8.1115 57.2392 8.11826 57.2392 8.13177V9.75469C57.2392 10.3719 57.1829 10.9181 57.0704 11.3922C56.928 11.9081 56.7545 12.2606 56.5486 12.4498H56.0568V14.1076H56.7102V13.0568H60.5052V14.1076ZM57.8998 9.90673V8.7253H59.8889V12.4498H57.3194C57.7059 11.7954 57.8998 10.9474 57.8998 9.90673Z" fill="white"/>
<path d="M111.394 18.1339C111.647 17.8952 111.774 17.6057 111.774 17.2656C111.774 16.9255 111.646 16.6371 111.394 16.3984C111.139 16.1596 110.831 16.0402 110.471 16.0402C110.111 16.0402 109.803 16.1596 109.549 16.3984C109.296 16.6371 109.169 16.9255 109.169 17.2656C109.169 17.6057 109.296 17.8952 109.549 18.1339C109.802 18.3727 110.109 18.4921 110.471 18.4921C110.832 18.4921 111.14 18.3727 111.394 18.1339Z" fill="white"/>
<path d="M111.392 29.6982V20.454H109.548V29.6982H111.392Z" fill="white"/>
<path fill-rule="evenodd" clip-rule="evenodd" d="M55 29.6982H57.0453L58.4479 26.0379H64.4821L65.8656 29.6982H67.9109L62.4978 16.19H60.413L55 29.6982ZM59.0691 24.4161L61.4148 18.322H61.4949L63.8406 24.4161H59.0691Z" fill="white"/>
<path d="M71.0381 20.454H69.2728V29.6982H71.1171V24.585C71.1171 23.8057 71.3648 23.1356 71.8591 22.5758C72.3533 22.0172 72.9685 21.7368 73.7033 21.7368C75.2807 21.7368 76.0897 22.4913 76.1292 24.0005V29.6982H77.9734V23.8879C77.9734 22.6929 77.6503 21.7717 77.0017 21.1241C76.353 20.4765 75.4279 20.1521 74.2251 20.1521C73.5968 20.1521 72.9924 20.3031 72.4108 20.6049C71.8304 20.9067 71.3983 21.284 71.1183 21.7368H71.0381V20.454Z" fill="white"/>
<path fill-rule="evenodd" clip-rule="evenodd" d="M84.2494 30C82.9664 30 81.8642 29.5225 80.9415 28.5663C80.0319 27.5977 79.5783 26.4343 79.5783 25.0761C79.5783 23.7178 80.0319 22.5544 80.9415 21.5858C81.8642 20.6297 82.9664 20.1521 84.2494 20.1521C84.971 20.1521 85.6293 20.2974 86.2241 20.5857C86.8189 20.8752 87.2772 21.2581 87.5968 21.7368H87.677L87.5968 20.454V16.19H89.441V29.6982H87.677V28.4154H87.5968C87.276 28.8929 86.8177 29.277 86.2241 29.5664C85.6293 29.8547 84.971 30 84.2494 30ZM84.5498 28.4154C85.4581 28.4154 86.2001 28.1068 86.7746 27.4907C87.3766 26.8747 87.677 26.0694 87.677 25.0761C87.677 24.1075 87.3766 23.309 86.7746 22.6806C86.1858 22.0521 85.445 21.7368 84.5498 21.7368C83.6677 21.7368 82.9257 22.051 82.3249 22.6806C81.723 23.3101 81.4226 24.1086 81.4226 25.0761C81.4226 26.057 81.723 26.8555 82.3249 27.4716C82.9257 28.1012 83.6677 28.4154 84.5498 28.4154Z" fill="white"/>
<path d="M91.6862 29.6982H93.5292V24.6053C93.5292 23.9003 93.7865 23.2842 94.3012 22.756C94.8158 22.2267 95.4201 21.9631 96.1155 21.9631C96.6097 21.9631 96.9712 22.0071 97.1986 22.0949L97.7598 20.4157C97.3853 20.2648 96.9317 20.1893 96.3967 20.1893C95.8354 20.1893 95.2646 20.3627 94.6829 20.7085C94.1013 21.0543 93.7171 21.4721 93.5304 21.9631H93.4502V20.454H91.6862V29.6982Z" fill="white"/>
<path fill-rule="evenodd" clip-rule="evenodd" d="M97.8005 25.0761C97.8005 23.6548 98.2745 22.479 99.2235 21.5487C100.186 20.6184 101.396 20.1521 102.852 20.1521C104.309 20.1521 105.511 20.6173 106.46 21.5487C107.423 22.4801 107.904 23.6559 107.904 25.0761C107.904 26.5098 107.423 27.6856 106.46 28.6035C105.511 29.5349 104.309 30 102.852 30C101.396 30 100.186 29.5349 99.2235 28.6035C98.2745 27.6732 97.8005 26.4974 97.8005 25.0761ZM99.6448 25.0761C99.6448 26.0694 99.9524 26.8747 100.568 27.4907C101.181 28.1068 101.944 28.4154 102.853 28.4154C103.762 28.4154 104.524 28.1068 105.139 27.4907C105.753 26.8747 106.061 26.0694 106.061 25.0761C106.061 24.0951 105.753 23.2966 105.139 22.6806C104.511 22.0521 103.749 21.7368 102.853 21.7368C101.958 21.7368 101.196 22.051 100.568 22.6806C99.9524 23.2966 99.6448 24.0951 99.6448 25.0761Z" fill="white"/>
<path fill-rule="evenodd" clip-rule="evenodd" d="M117.808 30C116.525 30 115.423 29.5225 114.5 28.5663C113.591 27.5977 113.137 26.4343 113.137 25.0761C113.137 23.7178 113.591 22.5544 114.5 21.5858C115.423 20.6297 116.525 20.1521 117.808 20.1521C118.53 20.1521 119.188 20.2974 119.783 20.5857C120.378 20.8752 120.836 21.2581 121.156 21.7368H121.236L121.156 20.454V16.19H123V29.6982H121.236V28.4154H121.156C120.835 28.8929 120.377 29.277 119.783 29.5664C119.188 29.8547 118.53 30 117.808 30ZM118.109 28.4154C119.017 28.4154 119.759 28.1068 120.334 27.4907C120.936 26.8747 121.236 26.0694 121.236 25.0761C121.236 24.1075 120.936 23.309 120.334 22.6806C119.745 22.0521 119.004 21.7368 118.109 21.7368C117.227 21.7368 116.485 22.051 115.884 22.6806C115.282 23.3101 114.982 24.1086 114.982 25.0761C114.982 26.057 115.282 26.8555 115.884 27.4716C116.485 28.1012 117.227 28.4154 118.109 28.4154Z" fill="white"/>
<path d="M68.8755 12.4295C69.3997 12.9217 70.0507 13.1683 70.8287 13.1683C71.2451 13.1683 71.6341 13.0906 71.9943 12.9386C72.3569 12.7843 72.6621 12.5669 72.9123 12.2854L72.4204 11.836C71.9704 12.3191 71.439 12.5613 70.8275 12.5613C70.2446 12.5613 69.7575 12.3766 69.3662 12.0083C68.9796 11.6445 68.7858 11.1692 68.7858 10.5847C68.7858 9.99908 68.9796 9.52493 69.3662 9.16116C69.7575 8.79287 70.2446 8.60817 70.8275 8.60817C71.4151 8.60817 71.8974 8.82328 72.2744 9.25125L72.7591 8.80864C72.2648 8.26917 71.6221 8 70.8287 8C70.046 8 69.3949 8.2489 68.8755 8.7467C68.3573 9.23549 68.0976 9.84816 68.0976 10.5847C68.0976 11.3213 68.3561 11.9362 68.8755 12.4295Z" fill="white"/>
<path d="M75.6816 8.71854V13.058H75.0066V8.71854H73.5382V8.11037H77.1501V8.71854H75.6816Z" fill="white"/>
<path d="M79.9098 11.0949C79.9098 11.0814 79.4646 10.0869 78.5742 8.11037H77.7736L79.5807 11.8349C79.4922 12.0184 79.4287 12.1457 79.3892 12.2144C79.2815 12.4813 79.096 12.6153 78.8315 12.6153C78.6999 12.6153 78.5718 12.5849 78.4498 12.5252C78.4402 12.5252 78.3792 12.7235 78.2667 13.1199C78.4773 13.1976 78.646 13.237 78.7729 13.237C78.974 13.237 79.1523 13.1999 79.3091 13.1267C79.3821 13.0996 79.4778 13.0444 79.5951 12.9611C79.7267 12.8316 79.8392 12.6964 79.9326 12.5534L82.076 8.11037H81.2754C80.4041 10.0543 79.9637 11.0487 79.9541 11.0949H79.9098Z" fill="white"/>
<path d="M82.8623 13.058V8.11037H86.8416V13.0568H86.1666V8.70503H83.5385V13.058H82.8623Z" fill="white"/>
<path d="M88.0827 13.058H88.7577V10.8257H91.3858V13.0568H92.0608V8.11037H91.3858V10.2311H88.7577V8.11037H88.0827V13.058Z" fill="white"/>
<path fill-rule="evenodd" clip-rule="evenodd" d="M98.4492 10.5836C98.4492 11.3157 98.1895 11.9283 97.6713 12.4216C97.1471 12.9194 96.5068 13.1683 95.7481 13.1683C94.9845 13.1683 94.343 12.9194 93.8248 12.4216C93.3054 11.9283 93.0469 11.3157 93.0469 10.5836C93.0469 9.85154 93.3066 9.23887 93.8248 8.74557C94.3419 8.2489 94.9833 8 95.7469 8C96.5104 8 97.1519 8.25115 97.6701 8.75346C98.1895 9.24562 98.4492 9.85605 98.4492 10.5836ZM93.7351 10.5836C93.7351 11.1546 93.9266 11.6265 94.3083 12.0004C94.6949 12.3732 95.1748 12.5602 95.7469 12.5602C96.3201 12.5602 96.7965 12.3732 97.1782 12.0004C97.5648 11.6321 97.7587 11.1602 97.7587 10.5836C97.7587 10.0081 97.5648 9.53619 97.1782 9.16679C96.7965 8.794 96.3189 8.60704 95.7469 8.60704C95.1736 8.60704 94.6949 8.794 94.3083 9.16679C93.9266 9.5407 93.7351 10.0126 93.7351 10.5836Z" fill="white"/>
<path fill-rule="evenodd" clip-rule="evenodd" d="M105.57 14.1076H106.216V12.4509H105.636V8.1115H102.317C102.308 8.1115 102.303 8.11826 102.303 8.13177V9.75469C102.303 10.3719 102.247 10.9181 102.134 11.3922C101.992 11.9081 101.818 12.2606 101.612 12.4498H101.12V14.1076H101.774V13.0568H105.57V14.1076ZM102.963 9.90673V8.7253H104.953V12.4498H102.383C102.77 11.7954 102.963 10.9474 102.963 9.90673Z" fill="white"/>
<path d="M111.437 13.0568H110.753V8.7253H108.603V11.0262C108.603 12.0995 108.375 12.7426 107.919 12.9543C107.739 13.0602 107.533 13.1131 107.303 13.1131H107.214C107.21 13.1131 107.207 13.1154 107.207 13.1199C107.193 13.1154 107.183 13.1131 107.177 13.1131C107.119 13.1131 107.043 13.1064 106.95 13.0929V12.4712C107.009 12.4892 107.062 12.4993 107.112 12.4993H107.273C107.454 12.4993 107.611 12.407 107.743 12.2234C107.861 11.97 107.919 11.5206 107.919 10.8764V8.11037H111.437V13.0568Z" fill="white"/>
<path fill-rule="evenodd" clip-rule="evenodd" d="M114.395 11.0544H115.143V13.058H115.818V8.1115H114.027C113.572 8.1115 113.184 8.25228 112.863 8.53609C112.543 8.81878 112.382 9.16791 112.382 9.58237C112.382 9.92362 112.502 10.2266 112.739 10.4912C112.977 10.7559 113.276 10.926 113.639 10.9992L113.653 11.0195L112.178 13.0298V13.058H112.978L114.395 11.0544ZM113.342 8.97758C113.52 8.80526 113.744 8.71854 114.013 8.71854H115.144V10.4597H114.058C113.784 10.4597 113.551 10.3752 113.36 10.2074C113.17 10.0396 113.074 9.83127 113.074 9.58237C113.074 9.35149 113.164 9.14989 113.342 8.97758Z" fill="white"/>
<path fill-rule="evenodd" clip-rule="evenodd" d="M67.3712 10.5836C67.3712 11.3157 67.1115 11.9283 66.5932 12.4216C66.0691 12.9194 65.4288 13.1683 64.67 13.1683C63.9065 13.1683 63.265 12.9194 62.7468 12.4216C62.2274 11.9283 61.9689 11.3157 61.9689 10.5836C61.9689 9.85154 62.2286 9.23887 62.7468 8.74557C63.2638 8.2489 63.9053 8 64.6688 8C65.4324 8 66.0738 8.25115 66.592 8.75346C67.1115 9.24562 67.3712 9.85605 67.3712 10.5836ZM62.657 10.5836C62.657 11.1546 62.8485 11.6265 63.2303 12.0004C63.6168 12.3732 64.0956 12.5602 64.6688 12.5602C65.2421 12.5602 65.7184 12.3732 66.1002 12.0004C66.4867 11.6321 66.6806 11.1602 66.6806 10.5836C66.6806 10.0081 66.4867 9.53619 66.1002 9.16679C65.7184 8.79513 65.2421 8.60817 64.6688 8.60817C64.0956 8.60817 63.6168 8.79513 63.2303 9.16791C62.8485 9.5407 62.657 10.0126 62.657 10.5836Z" stroke="white" stroke-width="0.2" mask="url(#path-3-outside-1)"/>
<path fill-rule="evenodd" clip-rule="evenodd" d="M60.5052 14.1076H61.1527V12.4509H60.5722V8.1115H57.2536C57.244 8.1115 57.2392 8.11826 57.2392 8.13177V9.75469C57.2392 10.3719 57.1829 10.9181 57.0704 11.3922C56.928 11.9081 56.7545 12.2606 56.5486 12.4498H56.0568V14.1076H56.7102V13.0568H60.5052V14.1076ZM57.8998 9.90673V8.7253H59.8889V12.4498H57.3194C57.7059 11.7954 57.8998 10.9474 57.8998 9.90673Z" stroke="white" stroke-width="0.2" mask="url(#path-3-outside-1)"/>
<path d="M111.394 18.1339C111.647 17.8952 111.774 17.6057 111.774 17.2656C111.774 16.9255 111.646 16.6371 111.394 16.3984C111.139 16.1596 110.831 16.0402 110.471 16.0402C110.111 16.0402 109.803 16.1596 109.549 16.3984C109.296 16.6371 109.169 16.9255 109.169 17.2656C109.169 17.6057 109.296 17.8952 109.549 18.1339C109.802 18.3727 110.109 18.4921 110.471 18.4921C110.832 18.4921 111.14 18.3727 111.394 18.1339Z" stroke="white" stroke-width="0.2" mask="url(#path-3-outside-1)"/>
<path d="M111.392 29.6982V20.454H109.548V29.6982H111.392Z" stroke="white" stroke-width="0.2" mask="url(#path-3-outside-1)"/>
<path fill-rule="evenodd" clip-rule="evenodd" d="M55 29.6982H57.0453L58.4479 26.0379H64.4821L65.8656 29.6982H67.9109L62.4978 16.19H60.413L55 29.6982ZM59.0691 24.4161L61.4148 18.322H61.4949L63.8406 24.4161H59.0691Z" stroke="white" stroke-width="0.2" mask="url(#path-3-outside-1)"/>
<path d="M71.0381 20.454H69.2728V29.6982H71.1171V24.585C71.1171 23.8057 71.3648 23.1356 71.8591 22.5758C72.3533 22.0172 72.9685 21.7368 73.7033 21.7368C75.2807 21.7368 76.0897 22.4913 76.1292 24.0005V29.6982H77.9734V23.8879C77.9734 22.6929 77.6503 21.7717 77.0017 21.1241C76.353 20.4765 75.4279 20.1521 74.2251 20.1521C73.5968 20.1521 72.9924 20.3031 72.4108 20.6049C71.8304 20.9067 71.3983 21.284 71.1183 21.7368H71.0381V20.454Z" stroke="white" stroke-width="0.2" mask="url(#path-3-outside-1)"/>
<path fill-rule="evenodd" clip-rule="evenodd" d="M84.2494 30C82.9664 30 81.8642 29.5225 80.9415 28.5663C80.0319 27.5977 79.5783 26.4343 79.5783 25.0761C79.5783 23.7178 80.0319 22.5544 80.9415 21.5858C81.8642 20.6297 82.9664 20.1521 84.2494 20.1521C84.971 20.1521 85.6293 20.2974 86.2241 20.5857C86.8189 20.8752 87.2772 21.2581 87.5968 21.7368H87.677L87.5968 20.454V16.19H89.441V29.6982H87.677V28.4154H87.5968C87.276 28.8929 86.8177 29.277 86.2241 29.5664C85.6293 29.8547 84.971 30 84.2494 30ZM84.5498 28.4154C85.4581 28.4154 86.2001 28.1068 86.7746 27.4907C87.3766 26.8747 87.677 26.0694 87.677 25.0761C87.677 24.1075 87.3766 23.309 86.7746 22.6806C86.1858 22.0521 85.445 21.7368 84.5498 21.7368C83.6677 21.7368 82.9257 22.051 82.3249 22.6806C81.723 23.3101 81.4226 24.1086 81.4226 25.0761C81.4226 26.057 81.723 26.8555 82.3249 27.4716C82.9257 28.1012 83.6677 28.4154 84.5498 28.4154Z" stroke="white" stroke-width="0.2" mask="url(#path-3-outside-1)"/>
<path d="M91.6862 29.6982H93.5292V24.6053C93.5292 23.9003 93.7865 23.2842 94.3012 22.756C94.8158 22.2267 95.4201 21.9631 96.1155 21.9631C96.6097 21.9631 96.9712 22.0071 97.1986 22.0949L97.7598 20.4157C97.3853 20.2648 96.9317 20.1893 96.3967 20.1893C95.8354 20.1893 95.2646 20.3627 94.6829 20.7085C94.1013 21.0543 93.7171 21.4721 93.5304 21.9631H93.4502V20.454H91.6862V29.6982Z" stroke="white" stroke-width="0.2" mask="url(#path-3-outside-1)"/>
<path fill-rule="evenodd" clip-rule="evenodd" d="M97.8005 25.0761C97.8005 23.6548 98.2745 22.479 99.2235 21.5487C100.186 20.6184 101.396 20.1521 102.852 20.1521C104.309 20.1521 105.511 20.6173 106.46 21.5487C107.423 22.4801 107.904 23.6559 107.904 25.0761C107.904 26.5098 107.423 27.6856 106.46 28.6035C105.511 29.5349 104.309 30 102.852 30C101.396 30 100.186 29.5349 99.2235 28.6035C98.2745 27.6732 97.8005 26.4974 97.8005 25.0761ZM99.6448 25.0761C99.6448 26.0694 99.9524 26.8747 100.568 27.4907C101.181 28.1068 101.944 28.4154 102.853 28.4154C103.762 28.4154 104.524 28.1068 105.139 27.4907C105.753 26.8747 106.061 26.0694 106.061 25.0761C106.061 24.0951 105.753 23.2966 105.139 22.6806C104.511 22.0521 103.749 21.7368 102.853 21.7368C101.958 21.7368 101.196 22.051 100.568 22.6806C99.9524 23.2966 99.6448 24.0951 99.6448 25.0761Z" stroke="white" stroke-width="0.2" mask="url(#path-3-outside-1)"/>
<path fill-rule="evenodd" clip-rule="evenodd" d="M117.808 30C116.525 30 115.423 29.5225 114.5 28.5663C113.591 27.5977 113.137 26.4343 113.137 25.0761C113.137 23.7178 113.591 22.5544 114.5 21.5858C115.423 20.6297 116.525 20.1521 117.808 20.1521C118.53 20.1521 119.188 20.2974 119.783 20.5857C120.378 20.8752 120.836 21.2581 121.156 21.7368H121.236L121.156 20.454V16.19H123V29.6982H121.236V28.4154H121.156C120.835 28.8929 120.377 29.277 119.783 29.5664C119.188 29.8547 118.53 30 117.808 30ZM118.109 28.4154C119.017 28.4154 119.759 28.1068 120.334 27.4907C120.936 26.8747 121.236 26.0694 121.236 25.0761C121.236 24.1075 120.936 23.309 120.334 22.6806C119.745 22.0521 119.004 21.7368 118.109 21.7368C117.227 21.7368 116.485 22.051 115.884 22.6806C115.282 23.3101 114.982 24.1086 114.982 25.0761C114.982 26.057 115.282 26.8555 115.884 27.4716C116.485 28.1012 117.227 28.4154 118.109 28.4154Z" stroke="white" stroke-width="0.2" mask="url(#path-3-outside-1)"/>
<path d="M68.8755 12.4295C69.3997 12.9217 70.0507 13.1683 70.8287 13.1683C71.2451 13.1683 71.6341 13.0906 71.9943 12.9386C72.3569 12.7843 72.6621 12.5669 72.9123 12.2854L72.4204 11.836C71.9704 12.3191 71.439 12.5613 70.8275 12.5613C70.2446 12.5613 69.7575 12.3766 69.3662 12.0083C68.9796 11.6445 68.7858 11.1692 68.7858 10.5847C68.7858 9.99908 68.9796 9.52493 69.3662 9.16116C69.7575 8.79287 70.2446 8.60817 70.8275 8.60817C71.4151 8.60817 71.8974 8.82328 72.2744 9.25125L72.7591 8.80864C72.2648 8.26917 71.6221 8 70.8287 8C70.046 8 69.3949 8.2489 68.8755 8.7467C68.3573 9.23549 68.0976 9.84816 68.0976 10.5847C68.0976 11.3213 68.3561 11.9362 68.8755 12.4295Z" stroke="white" stroke-width="0.2" mask="url(#path-3-outside-1)"/>
<path d="M75.6816 8.71854V13.058H75.0066V8.71854H73.5382V8.11037H77.1501V8.71854H75.6816Z" stroke="white" stroke-width="0.2" mask="url(#path-3-outside-1)"/>
<path d="M79.9098 11.0949C79.9098 11.0814 79.4646 10.0869 78.5742 8.11037H77.7736L79.5807 11.8349C79.4922 12.0184 79.4287 12.1457 79.3892 12.2144C79.2815 12.4813 79.096 12.6153 78.8315 12.6153C78.6999 12.6153 78.5718 12.5849 78.4498 12.5252C78.4402 12.5252 78.3792 12.7235 78.2667 13.1199C78.4773 13.1976 78.646 13.237 78.7729 13.237C78.974 13.237 79.1523 13.1999 79.3091 13.1267C79.3821 13.0996 79.4778 13.0444 79.5951 12.9611C79.7267 12.8316 79.8392 12.6964 79.9326 12.5534L82.076 8.11037H81.2754C80.4041 10.0543 79.9637 11.0487 79.9541 11.0949H79.9098Z" stroke="white" stroke-width="0.2" mask="url(#path-3-outside-1)"/>
<path d="M82.8623 13.058V8.11037H86.8416V13.0568H86.1666V8.70503H83.5385V13.058H82.8623Z" stroke="white" stroke-width="0.2" mask="url(#path-3-outside-1)"/>
<path d="M88.0827 13.058H88.7577V10.8257H91.3858V13.0568H92.0608V8.11037H91.3858V10.2311H88.7577V8.11037H88.0827V13.058Z" stroke="white" stroke-width="0.2" mask="url(#path-3-outside-1)"/>
<path fill-rule="evenodd" clip-rule="evenodd" d="M98.4492 10.5836C98.4492 11.3157 98.1895 11.9283 97.6713 12.4216C97.1471 12.9194 96.5068 13.1683 95.7481 13.1683C94.9845 13.1683 94.343 12.9194 93.8248 12.4216C93.3054 11.9283 93.0469 11.3157 93.0469 10.5836C93.0469 9.85154 93.3066 9.23887 93.8248 8.74557C94.3419 8.2489 94.9833 8 95.7469 8C96.5104 8 97.1519 8.25115 97.6701 8.75346C98.1895 9.24562 98.4492 9.85605 98.4492 10.5836ZM93.7351 10.5836C93.7351 11.1546 93.9266 11.6265 94.3083 12.0004C94.6949 12.3732 95.1748 12.5602 95.7469 12.5602C96.3201 12.5602 96.7965 12.3732 97.1782 12.0004C97.5648 11.6321 97.7587 11.1602 97.7587 10.5836C97.7587 10.0081 97.5648 9.53619 97.1782 9.16679C96.7965 8.794 96.3189 8.60704 95.7469 8.60704C95.1736 8.60704 94.6949 8.794 94.3083 9.16679C93.9266 9.5407 93.7351 10.0126 93.7351 10.5836Z" stroke="white" stroke-width="0.2" mask="url(#path-3-outside-1)"/>
<path fill-rule="evenodd" clip-rule="evenodd" d="M105.57 14.1076H106.216V12.4509H105.636V8.1115H102.317C102.308 8.1115 102.303 8.11826 102.303 8.13177V9.75469C102.303 10.3719 102.247 10.9181 102.134 11.3922C101.992 11.9081 101.818 12.2606 101.612 12.4498H101.12V14.1076H101.774V13.0568H105.57V14.1076ZM102.963 9.90673V8.7253H104.953V12.4498H102.383C102.77 11.7954 102.963 10.9474 102.963 9.90673Z" stroke="white" stroke-width="0.2" mask="url(#path-3-outside-1)"/>
<path d="M111.437 13.0568H110.753V8.7253H108.603V11.0262C108.603 12.0995 108.375 12.7426 107.919 12.9543C107.739 13.0602 107.533 13.1131 107.303 13.1131H107.214C107.21 13.1131 107.207 13.1154 107.207 13.1199C107.193 13.1154 107.183 13.1131 107.177 13.1131C107.119 13.1131 107.043 13.1064 106.95 13.0929V12.4712C107.009 12.4892 107.062 12.4993 107.112 12.4993H107.273C107.454 12.4993 107.611 12.407 107.743 12.2234C107.861 11.97 107.919 11.5206 107.919 10.8764V8.11037H111.437V13.0568Z" stroke="white" stroke-width="0.2" mask="url(#path-3-outside-1)"/>
<path fill-rule="evenodd" clip-rule="evenodd" d="M114.395 11.0544H115.143V13.058H115.818V8.1115H114.027C113.572 8.1115 113.184 8.25228 112.863 8.53609C112.543 8.81878 112.382 9.16791 112.382 9.58237C112.382 9.92362 112.502 10.2266 112.739 10.4912C112.977 10.7559 113.276 10.926 113.639 10.9992L113.653 11.0195L112.178 13.0298V13.058H112.978L114.395 11.0544ZM113.342 8.97758C113.52 8.80526 113.744 8.71854 114.013 8.71854H115.144V10.4597H114.058C113.784 10.4597 113.551 10.3752 113.36 10.2074C113.17 10.0396 113.074 9.83127 113.074 9.58237C113.074 9.35149 113.164 9.14989 113.342 8.97758Z" stroke="white" stroke-width="0.2" mask="url(#path-3-outside-1)"/>
</g>
<rect x="0.5" y="0.5" width="132" height="39" rx="7.5" stroke="#ACACAC"/>
<defs>
<clipPath id="clip0">
</clipPath>
</defs>
</svg>
