<svg width="120" height="40" viewBox="0 0 120 40" fill="none" xmlns="http://www.w3.org/2000/svg">
<rect x="0.5" y="0.5" width="118.66" height="39" rx="7.5" fill="black"/>
<path d="M24.77 20.3C24.74 17.55 27.02 16.21 27.13 16.15C25.84 14.27 23.84 14.01 23.14 13.99C21.46 13.81 19.83 14.99 18.98 14.99C18.11 14.99 16.79 14 15.37 14.03C13.54 14.06 11.83 15.12 10.9 16.76C8.96999 20.11 10.41 25.03 12.26 27.74C13.19 29.07 14.27 30.55 15.69 30.49C17.08 30.43 17.6 29.61 19.27 29.61C20.93 29.61 21.41 30.49 22.86 30.46C24.35 30.44 25.29 29.13 26.18 27.79C27.25 26.27 27.68 24.77 27.7 24.7C27.65 24.69 24.8 23.6 24.77 20.3Z" fill="white"/>
<path d="M22.04 12.21C22.79 11.28 23.3 10.01 23.15 8.71997C22.07 8.76997 20.72 9.46997 19.94 10.38C19.25 11.18 18.64 12.5 18.8 13.74C20.01 13.83 21.26 13.13 22.04 12.21Z" fill="white"/>
<path d="M42.3 27.14H37.57L36.43 30.5H34.43L38.91 18.08H40.99L45.47 30.5H43.43L42.3 27.14ZM38.06 25.59H41.81L39.96 20.14H39.91L38.06 25.59Z" fill="white"/>
<path d="M55.16 25.97C55.16 28.78 53.65 30.59 51.38 30.59C50.09 30.59 49.07 30.01 48.53 29.01H48.49V33.49H46.63V21.44H48.43V22.95H48.46C48.98 21.98 50.08 21.35 51.34 21.35C53.65 21.35 55.16 23.16 55.16 25.97ZM53.25 25.97C53.25 24.14 52.3 22.93 50.86 22.93C49.44 22.93 48.48 24.16 48.48 25.97C48.48 27.79 49.44 29.02 50.86 29.02C52.3 29.02 53.25 27.82 53.25 25.97Z" fill="white"/>
<path d="M65.12 25.97C65.12 28.78 63.61 30.59 61.34 30.59C60.05 30.59 59.03 30.01 58.49 29.01H58.45V33.49H56.6V21.44H58.4V22.95H58.43C58.95 21.98 60.05 21.35 61.31 21.35C63.61 21.35 65.12 23.16 65.12 25.97ZM63.21 25.97C63.21 24.14 62.26 22.93 60.82 22.93C59.4 22.93 58.44 24.16 58.44 25.97C58.44 27.79 59.4 29.02 60.82 29.02C62.27 29.02 63.21 27.82 63.21 25.97Z" fill="white"/>
<path d="M71.71 27.04C71.85 28.27 73.04 29.08 74.68 29.08C76.25 29.08 77.37 28.27 77.37 27.16C77.37 26.2 76.69 25.62 75.08 25.22L73.47 24.83C71.19 24.28 70.13 23.21 70.13 21.48C70.13 19.34 72 17.87 74.65 17.87C77.27 17.87 79.07 19.34 79.13 21.48H77.25C77.14 20.24 76.11 19.49 74.62 19.49C73.13 19.49 72.1 20.25 72.1 21.35C72.1 22.23 72.75 22.74 74.35 23.14L75.72 23.48C78.27 24.08 79.33 25.11 79.33 26.92C79.33 29.24 77.48 30.7 74.54 30.7C71.79 30.7 69.93 29.28 69.81 27.03H71.71V27.04Z" fill="white"/>
<path d="M83.35 19.3V21.4401H85.07V22.91H83.35V27.9C83.35 28.68 83.69 29.0401 84.45 29.0401C84.64 29.0401 84.94 29.01 85.06 29V30.46C84.85 30.51 84.44 30.55 84.03 30.55C82.2 30.55 81.48 29.8601 81.48 28.1101V22.92H80.16V21.4501H81.48V19.3H83.35Z" fill="white"/>
<path d="M86.06 25.97C86.06 23.12 87.74 21.33 90.35 21.33C92.97 21.33 94.64 23.12 94.64 25.97C94.64 28.83 92.98 30.61 90.35 30.61C87.73 30.61 86.06 28.83 86.06 25.97ZM92.76 25.97C92.76 24.02 91.86 22.86 90.36 22.86C88.86 22.86 87.96 24.02 87.96 25.97C87.96 27.93 88.85 29.08 90.36 29.08C91.87 29.08 92.76 27.93 92.76 25.97Z" fill="white"/>
<path d="M96.19 21.44H97.96V22.98H98C98.28 21.96 99.11 21.34 100.18 21.34C100.45 21.34 100.67 21.38 100.82 21.41V23.15C100.67 23.09 100.35 23.04 99.99 23.04C98.79 23.04 98.05 23.85 98.05 25.12V30.49H96.19V21.44Z" fill="white"/>
<path d="M109.38 27.84C109.13 29.48 107.53 30.61 105.48 30.61C102.85 30.61 101.21 28.85 101.21 26.01C101.21 23.17 102.85 21.33 105.4 21.33C107.9 21.33 109.48 23.05 109.48 25.8V26.44H103.09V26.55C103.09 28.1 104.06 29.11 105.53 29.11C106.56 29.11 107.37 28.62 107.62 27.84H109.38ZM103.1 25.13H107.63C107.59 23.74 106.7 22.83 105.41 22.83C104.13 22.84 103.2 23.77 103.1 25.13Z" fill="white"/>
<path d="M36.74 11.2499H37.54C38.2 11.2499 38.66 10.8599 38.66 10.2999C38.66 9.74995 38.25 9.38995 37.54 9.38995C36.84 9.38995 36.39 9.73995 36.34 10.3199H35.46C35.52 9.23995 36.32 8.56995 37.57 8.56995C38.74 8.56995 39.57 9.22995 39.57 10.1699C39.57 10.8299 39.13 11.3899 38.49 11.5299V11.5999C39.26 11.6799 39.82 12.2099 39.82 13.0399C39.82 14.0599 38.85 14.8099 37.59 14.8099C36.29 14.8099 35.4 14.1099 35.35 13.0399H36.24C36.29 13.6099 36.82 13.9799 37.59 13.9799C38.36 13.9799 38.87 13.5699 38.87 12.9799C38.87 12.3899 38.39 12.0199 37.56 12.0199H36.74V11.2499Z" fill="white"/>
<path d="M40.83 13.42C40.83 12.61 41.43 12.14 42.5 12.08L43.72 12.01V11.62C43.72 11.14 43.41 10.88 42.8 10.88C42.3 10.88 41.96 11.06 41.86 11.38H41C41.09 10.61 41.82 10.11 42.84 10.11C43.97 10.11 44.61 10.67 44.61 11.62V14.7H43.75V14.07H43.68C43.41 14.52 42.92 14.78 42.33 14.78C41.46 14.77 40.83 14.25 40.83 13.42ZM43.72 13.04V12.66L42.62 12.73C42 12.77 41.72 12.98 41.72 13.38C41.72 13.79 42.07 14.02 42.55 14.02C43.23 14.02 43.72 13.6 43.72 13.04Z" fill="white"/>
<path d="M46.97 10.9399V14.6899H46.08V10.1899H49.04V10.9399H46.97Z" fill="white"/>
<path d="M54.43 12.44C54.43 13.87 53.71 14.77 52.57 14.77C51.93 14.77 51.42 14.49 51.18 14.01H51.11V16.19H50.22V10.19H51.08V10.93H51.15C51.42 10.42 51.95 10.11 52.56 10.11C53.71 10.12 54.43 11.01 54.43 12.44ZM53.52 12.44C53.52 11.49 53.07 10.91 52.32 10.91C51.57 10.91 51.1 11.5 51.1 12.44C51.1 13.38 51.57 13.97 52.31 13.97C53.07 13.97 53.52 13.4 53.52 12.44Z" fill="white"/>
<path d="M55.61 16.3099V15.5399C55.68 15.5499 55.82 15.5599 55.9 15.5599C56.32 15.5599 56.56 15.3899 56.71 14.9299L56.78 14.7099L55.15 10.1899H56.12L57.25 13.7699H57.32L58.44 10.1899H59.38L57.7 14.8799C57.32 15.9799 56.89 16.3299 55.97 16.3299C55.91 16.3299 55.7 16.3199 55.61 16.3099Z" fill="white"/>
<path d="M60.08 13.42H60.96C61.05 13.82 61.42 14.02 61.94 14.02C62.53 14.02 62.9 13.76 62.9 13.35C62.9 12.92 62.57 12.71 61.94 12.71H61.27V12.02H61.93C62.47 12.02 62.74 11.81 62.74 11.44C62.74 11.11 62.48 10.86 61.93 10.86C61.43 10.86 61.07 11.07 61.01 11.43H60.15C60.24 10.63 60.91 10.11 61.92 10.11C62.99 10.11 63.6 10.59 63.6 11.35C63.6 11.8 63.31 12.17 62.89 12.27V12.34C63.47 12.48 63.77 12.85 63.77 13.35C63.77 14.21 63.04 14.77 61.93 14.77C60.96 14.78 60.16 14.33 60.08 13.42Z" fill="white"/>
<path d="M65.0699 14.7V10.2H65.9499V13.3H66.0199L68.0999 10.2H68.9799V14.7H68.0999V11.59H68.0299L65.9499 14.7H65.0699Z" fill="white"/>
<path d="M73.83 10.9399H72.41V14.6899H71.52V10.9399H70.1V10.1899H73.83V10.9399Z" fill="white"/>
<path d="M78.61 13.48C78.41 14.29 77.69 14.78 76.66 14.78C75.37 14.78 74.58 13.9 74.58 12.46C74.58 11.02 75.39 10.11 76.66 10.11C77.91 10.11 78.67 10.97 78.67 12.38V12.69H75.49V12.74C75.52 13.53 75.98 14.03 76.69 14.03C77.23 14.03 77.6 13.84 77.76 13.48H78.61ZM75.49 12.03H77.76C77.74 11.32 77.31 10.86 76.65 10.86C75.99 10.86 75.54 11.33 75.49 12.03Z" fill="white"/>
<path d="M82.38 10.1899H84.41C85.29 10.1899 85.81 10.6399 85.81 11.3399C85.81 11.7999 85.49 12.2099 85.05 12.2899V12.3599C85.63 12.4299 86.01 12.8499 86.01 13.3999C86.01 14.1899 85.42 14.6999 84.43 14.6999H82.38V10.1899ZM83.26 10.8799V12.0499H84.14C84.68 12.0499 84.93 11.8399 84.93 11.4599C84.93 11.1099 84.71 10.8799 84.23 10.8799H83.26ZM83.26 12.6999V14.0199H84.31C84.84 14.0199 85.12 13.7899 85.12 13.3599C85.12 12.9099 84.8 12.6999 84.2 12.6999H83.26Z" fill="white"/>
<rect x="0.5" y="0.5" width="118.66" height="39" rx="7.5" stroke="#ACACAC"/>
</svg>
