<svg width="16" height="16" viewBox="0 0 16 16" fill="none" xmlns="http://www.w3.org/2000/svg">
<path d="M8.00009 10.6485C9.46291 10.6485 10.6488 9.46265 10.6488 7.99985C10.6488 6.53704 9.46291 5.3512 8.00009 5.3512C6.53729 5.3512 5.35145 6.53704 5.35145 7.99985C5.35145 9.46265 6.53729 10.6485 8.00009 10.6485Z" fill="white"/>
<path d="M15.9459 4.7027C15.9459 4.05405 15.7838 3.35135 15.5676 2.75676C15.1351 1.67568 14.3243 0.810811 13.2433 0.432432C12.6486 0.216216 11.946 0.0540541 11.2973 0.0540541C10.4324 0 10.1622 0 8 0C5.83783 0 5.56757 0 4.70271 0.0540541C4.05405 0.0540541 3.40541 0.216216 2.75675 0.432432C1.67567 0.864865 0.81081 1.67568 0.432432 2.75676C0.162162 3.35135 0.054054 4.05405 0.054054 4.7027C4.65554e-09 5.56757 0 5.83784 0 8C0 10.1622 4.65554e-09 10.4324 0.054054 11.2973C0.054054 11.9459 0.216216 12.5946 0.432432 13.2432C0.864867 14.3243 1.67567 15.1892 2.75675 15.5676C3.35135 15.7838 4.05405 15.9459 4.70271 15.9459C5.56757 16 5.83783 16 8 16C10.1622 16 10.4324 16 11.2973 15.9459C11.946 15.9459 12.5946 15.7838 13.2433 15.5676C14.3243 15.1351 15.1892 14.3243 15.5676 13.2432C15.7838 12.6486 15.9459 11.9459 15.9459 11.2973C16 10.4324 16 10.1622 16 8C16 5.83784 16 5.56757 15.9459 4.7027ZM8 12.1081C5.72973 12.1081 3.89189 10.2703 3.89189 8C3.89189 5.72973 5.72973 3.89189 8 3.89189C10.2703 3.89189 12.1081 5.72973 12.1081 8C12.1081 10.2703 10.2703 12.1081 8 12.1081ZM12.2703 4.7027C11.7297 4.7027 11.2973 4.27027 11.2973 3.72973C11.2973 3.18919 11.7297 2.75676 12.2703 2.75676C12.8108 2.75676 13.2433 3.18919 13.2433 3.72973C13.2433 4.27027 12.7568 4.7027 12.2703 4.7027Z" fill="white"/>
</svg>
