<svg width="10" height="16" viewBox="0 0 10 16" fill="none" xmlns="http://www.w3.org/2000/svg">
<path fill-rule="evenodd" clip-rule="evenodd" d="M0.788713 4.04051C0.801204 1.80005 2.69109 -0.00593089 5.01656 1.4638e-05C7.34723 0.00607235 9.21844 1.83797 9.20595 4.10153C9.19451 6.31405 7.29317 8.10602 4.96665 8.09805C2.66407 8.0911 0.775228 6.25606 0.788713 4.04051ZM2.93644 4.06956C2.94473 5.16634 3.86474 6.0363 5.01137 6.03136C6.15385 6.02833 7.06342 5.14638 7.05927 4.04556C7.05513 2.94574 6.14346 2.06973 4.99993 2.06872C3.84811 2.06771 2.9271 2.95977 2.93644 4.06956Z" fill="white"/>
<path d="M8.70592 8.09199C9.14979 7.98217 9.56564 8.14001 9.80369 8.51357C10.0771 8.94007 10.074 9.35761 9.73714 9.68921C9.22153 10.1977 8.60196 10.5653 7.91275 10.822C7.262 11.0648 6.54781 11.1866 5.84196 11.2685C5.94802 11.3794 5.99893 11.4343 6.06547 11.4982C6.44233 11.8624 6.82 12.2258 7.19768 12.5893C7.78047 13.1502 8.36321 13.7111 8.94292 14.2741C9.26835 14.5908 9.33589 14.9834 9.15709 15.3509C8.96165 15.7535 8.52193 16.0182 8.09155 15.9892C7.81918 15.9713 7.60606 15.8414 7.41792 15.6576C7.18285 15.4305 6.94621 15.2045 6.70956 14.9786C6.21794 14.5092 5.72626 14.0398 5.24836 13.559C5.04149 13.3522 4.94278 13.3911 4.75978 13.571C4.0321 14.2912 3.29193 15.0004 2.54866 15.7045C2.21395 16.0212 1.81684 16.0792 1.42907 15.8984C1.01637 15.7065 0.754389 15.302 0.775228 14.8955C0.788713 14.6207 0.930092 14.411 1.12553 14.2232C2.07567 13.3123 3.02166 12.4003 3.96766 11.4882C4.01797 11.4399 4.06508 11.3903 4.1276 11.3243L4.17973 11.2695C2.88962 11.1397 1.72537 10.835 0.728413 10.0859C0.70413 10.0676 0.679671 10.0494 0.655213 10.0312C0.555103 9.9571 0.454818 9.88261 0.364573 9.79915C-0.0720581 9.39563 -0.115721 8.93514 0.229439 8.46062C0.524691 8.05307 1.02051 7.94515 1.53513 8.17893C1.63489 8.22392 1.73056 8.27978 1.82203 8.34081C3.67865 9.56637 6.22973 9.60036 8.0947 8.39566C8.27869 8.25981 8.47617 8.14898 8.70592 8.09199Z" fill="white"/>
</svg>
