<svg width="15" height="14" viewBox="0 0 15 14" fill="none" xmlns="http://www.w3.org/2000/svg">
<path fill-rule="evenodd" clip-rule="evenodd" d="M15 1.65713C14.4488 1.93834 13.8553 2.12812 13.2329 2.21375C13.8676 1.77633 14.356 1.08431 14.5858 0.258059C13.9913 0.663085 13.3329 0.957018 12.6312 1.11556C12.0707 0.429327 11.2701 0 10.385 0C8.68595 0 7.30732 1.58191 7.30732 3.53414C7.30732 3.81187 7.33514 4.0815 7.38769 4.33956C4.83033 4.19144 2.56251 2.78542 1.04479 0.646884C0.779983 1.16879 0.62749 1.77633 0.62749 2.42321C0.62749 3.64986 1.17152 4.73186 1.99684 5.36485C1.49196 5.3475 1.018 5.1878 0.602761 4.92395C0.602761 4.93784 0.602761 4.95289 0.602761 4.96793C0.602761 6.67945 1.663 8.10861 3.07151 8.43379C2.81289 8.51364 2.54087 8.55761 2.26061 8.55761C2.06175 8.55761 1.86908 8.53563 1.68155 8.49397C2.07309 9.89767 3.20958 10.9195 4.55626 10.9484C3.50323 11.8962 2.17612 12.4609 0.734648 12.4609C0.486331 12.4609 0.241105 12.4435 0 12.4111C1.36214 13.4144 2.9798 14 4.71802 14C10.3778 14 13.473 8.61432 13.473 3.94379C13.473 3.79104 13.4709 3.63829 13.4648 3.48669C14.0655 2.98909 14.5879 2.36651 15 1.65713Z" fill="white"/>
</svg>
