<svg width="17" height="9" viewBox="0 0 17 9" fill="none" xmlns="http://www.w3.org/2000/svg">
<path d="M16.7303 8.26775C16.6725 8.17111 16.3542 7.66864 15.1005 6.35059C13.7214 5.03254 13.8467 5.27219 15.602 3.11538C16.6049 1.79734 17.1064 0.95858 16.9811 0.599112C16.8557 0.239645 16.1035 0.359467 16.1035 0.359467H13.596C13.596 0.359467 13.3453 0.359467 13.2199 0.359467C13.0945 0.47929 12.9691 0.599112 12.9691 0.599112C12.9691 0.599112 12.4676 1.79734 11.9662 2.63609C10.8378 4.55325 10.3363 4.55325 10.0856 4.43343C9.70944 4.19379 9.83481 3.35503 9.83481 2.87574C9.83481 1.0784 10.0856 0.359467 9.33332 0.119822C8.9572 0 8.83183 0 8.07959 0C7.20198 0 6.44974 0 5.94825 0.239645C5.6975 0.359467 5.44676 0.599112 5.57213 0.718935C5.6975 0.718935 6.07362 0.838757 6.32437 1.0784C6.57511 1.43787 6.57511 2.1568 6.57511 2.1568C6.57511 2.1568 6.70049 4.31361 6.199 4.55325C5.94825 4.67308 5.44676 4.31361 4.44377 2.63609C3.94228 1.79734 3.56616 0.838757 3.56616 0.838757C3.56616 0.838757 3.44079 0.599112 3.31542 0.599112C3.19004 0.47929 2.9393 0.359467 2.9393 0.359467H0.557213C0.557213 0.359467 0.181094 0.359467 0.0557213 0.47929C-0.0696516 0.599112 0.0557213 0.838757 0.0557213 0.838757C0.0557213 0.838757 1.93632 5.03254 4.06766 7.18935C6.07362 9.10651 8.33033 8.98669 8.33033 8.98669H9.33332C9.33332 8.98669 9.58406 8.98669 9.83481 8.74704C9.96018 8.62722 9.96018 8.26775 9.96018 8.26775C9.96018 8.26775 9.96018 6.9497 10.587 6.82988C11.2139 6.59024 11.9662 8.02811 12.8438 8.62722C13.4706 9.10651 13.9721 8.98669 13.9721 8.98669H16.2288C16.6252 8.98669 17.2318 9.10651 16.7303 8.26775Z" fill="white"/>
</svg>
