<svg width="31" height="28" viewBox="0 0 31 28" fill="none" xmlns="http://www.w3.org/2000/svg">
<path d="M28.5 26.618H2.25C1.5 26.618 1 26.1725 1 25.5042V5.45537C1 4.78708 1.5 4.34155 2.25 4.34155H28.5C29.25 4.34155 29.75 4.78708 29.75 5.45537V25.5042C29.75 26.1725 29.25 26.618 28.5 26.618Z" stroke="black" stroke-miterlimit="10" stroke-linecap="round" stroke-linejoin="round"/>
<path d="M1 9.91064H29.75" stroke="black" stroke-miterlimit="10" stroke-linecap="round" stroke-linejoin="round"/>
<path d="M24.75 1V6.56915" stroke="black" stroke-miterlimit="10" stroke-linecap="round" stroke-linejoin="round"/>
<path d="M6 1V6.56915" stroke="black" stroke-miterlimit="10" stroke-linecap="round" stroke-linejoin="round"/>
<path d="M8.5 18.3757C8.5 18.3757 10.75 18.3757 11.5 18.3757C12.625 18.3757 14.125 18.0415 14.125 16.148C14.125 14.2546 12.5 14.0318 11.5 13.9204C10.625 13.9204 9.25 13.9204 8.75 13.9204C8.625 13.9204 8.5 14.0318 8.5 14.1432V22.7196C8.5 22.7196 8.5 22.8309 8.625 22.8309H11.5C11.5 22.8309 14.75 22.9423 14.75 20.6033C14.75 18.3757 11.5 18.4871 11.5 18.4871H8.5" stroke="black" stroke-miterlimit="10" stroke-linecap="round" stroke-linejoin="round"/>
<path d="M22 22.1627C21.5 22.4968 20.75 22.7196 20.125 22.7196C18.25 22.7196 16.625 21.383 16.625 19.6009C16.625 17.8188 18.125 16.4822 20.125 16.4822C21 16.4822 21.75 16.7049 22.25 17.1505" stroke="black" stroke-miterlimit="10" stroke-linecap="round" stroke-linejoin="round"/>
</svg>
